<svg id="Capa_1" data-name="Capa 1" xmlns="http://www.w3.org/2000/svg" viewBox="0 0 978.01 740.6"><defs><style>.cls-1{fill:none;stroke:#1a1a1a;stroke-width:4px;}.cls-2{fill:#333;}.cls-3{fill:#605691;}.cls-4{fill:#4d4d4d;}.cls-5{opacity:0;}.cls-6{fill:#231942;}.cls-7{fill:#5e548e;}.cls-8{opacity:0.36;}.cls-9{fill:#2e2260;}.cls-10{opacity:0.63;}.cls-11{fill:#40bf03;}</style></defs><title>Mascota Pclub</title><path class="cls-1" d="M1140.84,333a243.52,243.52,0,0,0-86.44,22.62,325.07,325.07,0,0,0-39,22.57c-12.6,8.32-24.95,17.14-37.65,25.59S952,420.35,938.13,427l-5.22,2.47c-1.76.79-3.55,1.51-5.33,2.27-3.53,1.55-7.18,2.83-10.8,4.16a224.7,224.7,0,0,1-22.22,6.34c-7.49,1.78-15.06,3.08-22.64,4.2s-15.2,1.93-22.82,2.56-15.24,1.1-22.85,1.43c-3.8.18-7.61.31-11.41.44s-7.59.27-11.46.31" transform="translate(-193.13 -11)"/><path class="cls-1" d="M803.18,431.18c1.72,0,3.53-.07,5.37-.12l5.62-.18c3.74-.13,7.48-.26,11.18-.43q11.16-.48,22.08-1.38c7.29-.61,14.51-1.37,21.62-2.43s14.15-2.26,21-3.89A209.42,209.42,0,0,0,910.23,417c3.24-1.2,6.5-2.33,9.67-3.74,1.6-.68,3.2-1.32,4.79-2l4.74-2.25c12.65-6,24.93-13.72,37.26-21.88s24.73-17,37.71-25.62a344,344,0,0,1,41.43-23.95,263.47,263.47,0,0,1,93.59-24.5,37.94,37.94,0,0,1,12,1,31.5,31.5,0,0,1,5.18,1.74,28.66,28.66,0,0,1,4.45,2.48,21.23,21.23,0,0,1,3.58,3,18.57,18.57,0,0,1,2.61,3.51,14.51,14.51,0,0,1,1.92,7.87,15.76,15.76,0,0,1-2.51,7.69,19.85,19.85,0,0,1-2.61,3.29,26.16,26.16,0,0,1-3.33,2.92,27.71,27.71,0,0,1-3.93,2.41,35.31,35.31,0,0,1-4.42,1.93,38.47,38.47,0,0,1-10.06,2.05A223.46,223.46,0,0,0,1063,373.68a304.17,304.17,0,0,0-36.54,21.19c-12.22,8.07-24.5,16.85-37.6,25.55S962,437.74,946.83,445l-5.7,2.7c-1.93.86-3.91,1.66-5.87,2.49-3.89,1.71-7.92,3.14-11.93,4.6a247.32,247.32,0,0,1-24.26,6.93c-8.12,1.92-16.23,3.31-24.29,4.5s-16.07,2-24,2.7-15.83,1.14-23.62,1.48c-3.91.18-7.78.32-11.64.45l-5.79.19c-2,.05-4,.11-6.13.12a41.62,41.62,0,0,1-13.32-2A32.7,32.7,0,0,1,779,463a18.3,18.3,0,0,1-5.84-8.55,11.39,11.39,0,0,1,.69-8.2,19.1,19.1,0,0,1,5.17-6.22,41.24,41.24,0,0,1,6.75-4.49A36.22,36.22,0,0,1,803.18,431.18Z" transform="translate(-193.13 -11)"/><path class="cls-1" d="M1080.11,326.8a35.34,35.34,0,0,1,5-5.92,33.51,33.51,0,0,1,6.13-4.69,26.94,26.94,0,0,1,17.17-3.82A32,32,0,0,1,1116,314a40.67,40.67,0,0,1,5.14,2.14c1.22.64,1.9,1.09,1.9,1.09l-1.67.53c-1.07.36-2.62.86-4.54,1.42l-6.73,1.87c-2.53.69-5.33,1.32-8.26,2s-5.77,1.17-8.34,1.68-4.94.8-6.9,1.15C1082.62,326.57,1080.11,326.8,1080.11,326.8Z" transform="translate(-193.13 -11)"/><path class="cls-1" d="M1079.44,326.69l-.45.75,1-.12,1.83-.2c1.14-.15,2.78-.37,4.77-.7s4.36-.66,6.93-1.16,5.41-1,8.34-1.68,5.71-1.33,8.25-2l6.77-1.88c1.94-.56,3.52-1.07,4.61-1.43l1.75-.55,1-.34-.73-.48c-.11-.08-.88-.57-2.16-1.25a37.73,37.73,0,0,0-5.29-2.18,33,33,0,0,0-7.65-1.62,28.41,28.41,0,0,0-9.06.53,27.81,27.81,0,0,0-8.42,3.37,33.65,33.65,0,0,0-6.24,4.7A36,36,0,0,0,1079.44,326.69Zm22.25-4.09c-2.32.55-4.59.92-6.69,1.36s-4.1.77-5.89,1c-3.57.58-6.34,1-7.81,1.16a37.56,37.56,0,0,1,6.06-6.54,36.3,36.3,0,0,1,5.45-3.72,25.68,25.68,0,0,1,6.81-2.57,23.54,23.54,0,0,1,3.68-.55,30.54,30.54,0,0,1,3.58,0,31.21,31.21,0,0,1,6.5,1.05,38.28,38.28,0,0,1,8.27,3.32c-1.4.46-4.07,1.34-7.56,2.28-1.74.46-3.67,1.06-5.76,1.58-1,.26-2.13.53-3.24.78Z" transform="translate(-193.13 -11)"/><path class="cls-1" d="M1032.74,347.09a36.06,36.06,0,0,1,3.7-6.81,33,33,0,0,1,5.08-5.82,27,27,0,0,1,16.11-7.18,31.65,31.65,0,0,1,7.72.13,38.34,38.34,0,0,1,5.47,1.08c1.33.39,2.09.7,2.09.7l-1.54.85c-1,.56-2.4,1.36-4.18,2.28l-6.23,3.17c-2.35,1.17-5,2.34-7.71,3.62s-5.44,2.29-7.85,3.31-4.7,1.77-6.54,2.52C1035.15,346.36,1032.74,347.09,1032.74,347.09Z" transform="translate(-193.13 -11)"/><path class="cls-1" d="M1032.06,347.11l-.3.81,1-.31,1.74-.57c1.09-.37,2.64-.91,4.52-1.63s4.14-1.52,6.57-2.53,5.1-2.08,7.84-3.31,5.35-2.44,7.7-3.62l6.28-3.18c1.79-.94,3.23-1.75,4.24-2.32l1.6-.88.92-.53-.81-.33c-.13,0-1-.39-2.37-.8a37.85,37.85,0,0,0-5.62-1.09,32.25,32.25,0,0,0-7.83-.07,28.18,28.18,0,0,0-16.39,7.3,33.34,33.34,0,0,0-5.19,5.87A36.22,36.22,0,0,0,1032.06,347.11Zm21-8.46c-2.16,1-4.32,1.81-6.29,2.67s-3.87,1.57-5.58,2.2c-3.38,1.29-6,2.25-7.39,2.7a36.81,36.81,0,0,1,4.6-7.62,29.36,29.36,0,0,1,10.8-8.62,23.4,23.4,0,0,1,3.5-1.28,30.06,30.06,0,0,1,3.52-.71,31,31,0,0,1,6.59-.26,38.43,38.43,0,0,1,8.77,1.62c-1.28.72-3.73,2.12-7,3.73-1.62.8-3.4,1.77-5.35,2.69Z" transform="translate(-193.13 -11)"/><path class="cls-1" d="M991.6,373.15a36.26,36.26,0,0,1,2.7-7,30.43,30.43,0,0,1,10.22-11.92,28.08,28.08,0,0,1,7.85-3.45,37.51,37.51,0,0,1,7.46-1.15,34.7,34.7,0,0,1,5.53.13c1.36.13,2.15.29,2.15.29l-1.32,1.12-3.65,2.95c-1.53,1.24-3.37,2.66-5.46,4.17s-4.35,3.15-6.83,4.74a138.08,138.08,0,0,1-13,7.46C993.83,372.23,991.6,373.15,991.6,373.15Z" transform="translate(-193.13 -11)"/><path class="cls-1" d="M991,373.22l-.19.82.93-.38,1.6-.71c1-.45,2.45-1.13,4.18-2a140.58,140.58,0,0,0,13-7.49c2.48-1.58,4.74-3.23,6.83-4.74s3.95-3,5.5-4.2,2.84-2.25,3.71-3l1.38-1.18.79-.7-.85-.17a35.5,35.5,0,0,0-8.13-.43,37.85,37.85,0,0,0-7.54,1.22,28.69,28.69,0,0,0-8,3.54C994,360.52,991.09,372.72,991,373.22Zm19-10.6a132.75,132.75,0,0,1-17.49,9.59,39.66,39.66,0,0,1,3.43-7.87,28.5,28.5,0,0,1,8.88-9.68,26.87,26.87,0,0,1,6.33-3,33.55,33.55,0,0,1,6.31-1.29,36,36,0,0,1,8.8.07c-1.12.93-3.27,2.68-6.06,4.87-1.4,1.09-3,2.26-4.71,3.49S1011.93,361.36,1010,362.62Z" transform="translate(-193.13 -11)"/><path class="cls-1" d="M952.84,399s.2-.75.65-1.94a43.07,43.07,0,0,1,2.07-4.76,35.75,35.75,0,0,1,3.75-5.86,24.85,24.85,0,0,1,13.09-8.75,35.44,35.44,0,0,1,7.05-1.29,37.85,37.85,0,0,1,7.41.06s-1.65,1.74-4.44,4.26a103.56,103.56,0,0,1-11.48,9c-2.35,1.55-4.65,2.92-6.79,4.11s-4.11,2.11-5.79,2.88-3.05,1.36-4,1.71Z" transform="translate(-193.13 -11)"/><path class="cls-1" d="M952.21,399l-.21.8.92-.31,1.57-.57c1-.36,2.39-1,4.09-1.74s3.68-1.74,5.84-2.92,4.46-2.57,6.8-4.12a103.57,103.57,0,0,0,11.53-9.06c1.42-1.28,2.54-2.36,3.33-3.13l1.23-1.24L988,376l-.84-.12c-.52-.09-12.93-1.61-22.34,4.73a25.74,25.74,0,0,0-5.89,5.46,34.64,34.64,0,0,0-3.83,5.9A40.06,40.06,0,0,0,952.21,399Zm18.45-9.69a87.84,87.84,0,0,1-16.93,8.81,41.89,41.89,0,0,1,3.39-7.53,27.64,27.64,0,0,1,8.26-9.17c7.46-5,17.3-4.73,20.29-4.5A106,106,0,0,1,970.66,389.28Z" transform="translate(-193.13 -11)"/><path class="cls-1" d="M911.83,419.09a37.52,37.52,0,0,1,3.73-5.91,35.61,35.61,0,0,1,4.36-5,32,32,0,0,1,2.8-2.25A19.34,19.34,0,0,1,926,404a20.73,20.73,0,0,1,3.55-1.29,24.59,24.59,0,0,1,3.59-.79,40.76,40.76,0,0,1,6.76-.3,37.5,37.5,0,0,1,7.1.86s-1.68,1.52-4.56,3.73a62.38,62.38,0,0,1-5.21,3.57q-1.5.95-3.18,1.92c-1.12.61-2.31,1.19-3.53,1.77s-2.43,1.12-3.6,1.62-2.35.86-3.45,1.24c-2.22.72-4.23,1.34-5.95,1.74C914,418.81,911.83,419.09,911.83,419.09Z" transform="translate(-193.13 -11)"/><path class="cls-1" d="M911.23,419l-.36.72.93-.1,1.6-.25c1-.17,2.44-.43,4.19-.81s3.78-1,6-1.75c1.11-.39,2.29-.74,3.46-1.25s2.39-1,3.62-1.62,2.41-1.17,3.54-1.79,2.18-1.29,3.19-1.93a60.55,60.55,0,0,0,5.26-3.6c1.46-1.11,2.63-2.06,3.43-2.73l1.25-1.09.71-.64-.81-.2a37.2,37.2,0,0,0-7.49-.9,41.73,41.73,0,0,0-6.82.35,25.16,25.16,0,0,0-3.62.83,22.53,22.53,0,0,0-3.59,1.32,20.66,20.66,0,0,0-3.29,1.95,34.35,34.35,0,0,0-2.84,2.26,36.34,36.34,0,0,0-4.43,5A38.56,38.56,0,0,0,911.23,419Zm19-6a62.94,62.94,0,0,1-17.44,5.41c.34-.63.9-1.6,1.66-2.75s1.71-2.44,2.81-3.85a27.59,27.59,0,0,1,3.87-4c.37-.31.75-.61,1.15-.91s.79-.61,1.2-.9a18.64,18.64,0,0,1,5.53-2.62,28.32,28.32,0,0,1,2.92-.73,29,29,0,0,1,5.7-.48,41,41,0,0,1,8.11.67c-1,.85-2.94,2.5-5.6,4.39-1.34.91-2.86,1.9-4.52,2.91-.83.5-1.68,1-2.59,1.5S931.22,412.57,930.26,413Z" transform="translate(-193.13 -11)"/><path class="cls-1" d="M865.85,429.62a36.87,36.87,0,0,1,5.12-5,34.32,34.32,0,0,1,5.61-3.89,23.6,23.6,0,0,1,7-2.68,22.79,22.79,0,0,1,7.47-.32,33.67,33.67,0,0,1,6.56,1.33,37.49,37.49,0,0,1,6.58,2.52s-1.94,1.08-5.19,2.55c-1.65.69-3.64,1.44-5.87,2.21s-4.77,1.39-7.43,2-5.27.91-7.64,1.13-4.53.32-6.35.35C868.11,429.81,865.85,429.62,865.85,429.62Z" transform="translate(-193.13 -11)"/><path class="cls-1" d="M865.27,429.4l-.52.64,1,.09,1.67.09c1,0,2.55.08,4.4.07s4-.15,6.4-.35,5-.63,7.67-1.13,5.19-1.26,7.45-2,4.26-1.53,5.93-2.23,3-1.39,3.89-1.85l1.45-.76c.27-.15.55-.29.81-.46l-.72-.38a39.12,39.12,0,0,0-6.94-2.65,34.46,34.46,0,0,0-6.63-1.3,24,24,0,0,0-7.56.37,24.73,24.73,0,0,0-7.16,2.68,35.14,35.14,0,0,0-5.69,3.88A37.88,37.88,0,0,0,865.27,429.4Zm20.38-1.57A75.82,75.82,0,0,1,867,429.18a44.36,44.36,0,0,1,6-5.51,31.78,31.78,0,0,1,4.89-3.07,21.13,21.13,0,0,1,5.81-2.07,20.39,20.39,0,0,1,6.1-.39,31.35,31.35,0,0,1,5.61.87c1.75.45,3.31.95,4.61,1.41s2.33.91,3,1.21A68,68,0,0,1,885.65,427.83Z" transform="translate(-193.13 -11)"/><path class="cls-1" d="M818.59,433.23a38.85,38.85,0,0,1,5.81-4.49,30.43,30.43,0,0,1,14-5,29.91,29.91,0,0,1,14.36,3.1,40.93,40.93,0,0,1,4.55,2.48c1.09.7,1.71,1.15,1.71,1.15s-.54.2-1.54.48-2.42.69-4.21,1.12a86.31,86.31,0,0,1-14.18,2.14,95.07,95.07,0,0,1-14.46-.21C820.91,433.65,818.59,433.23,818.59,433.23Z" transform="translate(-193.13 -11)"/><path class="cls-1" d="M818,433l-.6.59,1,.17,1.7.26c1.07.15,2.61.36,4.49.51a94.73,94.73,0,0,0,14.53.22,87.28,87.28,0,0,0,14.26-2.15c1.81-.44,3.27-.84,4.29-1.13l1.17-.36.43-.15.91-.32-.66-.5a39.49,39.49,0,0,0-6.6-3.81,30.52,30.52,0,0,0-14.56-3C827.22,424,818.4,432.56,818,433Zm21,.76a95.64,95.64,0,0,1-19.24-.8c2.24-2,9.76-8.11,18.62-8.68a27.35,27.35,0,0,1,12.06,2.23,40.36,40.36,0,0,1,7.3,3.86c-1.29.38-3.75,1.09-7,1.78A89,89,0,0,1,839.05,433.71Z" transform="translate(-193.13 -11)"/><path d="M1140.84,333a243.52,243.52,0,0,0-86.44,22.62,325.07,325.07,0,0,0-39,22.57c-12.6,8.32-24.95,17.14-37.65,25.59S952,420.35,938.13,427l-5.22,2.47c-1.76.79-3.55,1.51-5.33,2.27-3.53,1.55-7.18,2.83-10.8,4.16a224.7,224.7,0,0,1-22.22,6.34c-7.49,1.78-15.06,3.08-22.64,4.2s-15.2,1.93-22.82,2.56-15.24,1.1-22.85,1.43c-3.8.18-7.61.31-11.41.44s-7.59.27-11.46.31" transform="translate(-193.13 -11)"/><path class="cls-2" d="M803.18,431.18c1.72,0,3.53-.07,5.37-.12l5.62-.18c3.74-.13,7.48-.26,11.18-.43q11.16-.48,22.08-1.38c7.29-.61,14.51-1.37,21.62-2.43s14.15-2.26,21-3.89A209.42,209.42,0,0,0,910.23,417c3.24-1.2,6.5-2.33,9.67-3.74,1.6-.68,3.2-1.32,4.79-2l4.74-2.25c12.65-6,24.93-13.72,37.26-21.88s24.73-17,37.71-25.62a344,344,0,0,1,41.43-23.95,263.47,263.47,0,0,1,93.59-24.5,37.94,37.94,0,0,1,12,1,31.5,31.5,0,0,1,5.18,1.74,28.66,28.66,0,0,1,4.45,2.48,21.23,21.23,0,0,1,3.58,3,18.57,18.57,0,0,1,2.61,3.51,14.51,14.51,0,0,1,1.92,7.87,15.76,15.76,0,0,1-2.51,7.69,19.85,19.85,0,0,1-2.61,3.29,26.16,26.16,0,0,1-3.33,2.92,27.71,27.71,0,0,1-3.93,2.41,35.31,35.31,0,0,1-4.42,1.93,38.47,38.47,0,0,1-10.06,2.05A223.46,223.46,0,0,0,1063,373.68a304.17,304.17,0,0,0-36.54,21.19c-12.22,8.07-24.5,16.85-37.6,25.55S962,437.74,946.83,445l-5.7,2.7c-1.93.86-3.91,1.66-5.87,2.49-3.89,1.71-7.92,3.14-11.93,4.6a247.32,247.32,0,0,1-24.26,6.93c-8.12,1.92-16.23,3.31-24.29,4.5s-16.07,2-24,2.7-15.83,1.14-23.62,1.48c-3.91.18-7.78.32-11.64.45l-5.79.19c-2,.05-4,.11-6.13.12a41.62,41.62,0,0,1-13.32-2A32.7,32.7,0,0,1,779,463a18.3,18.3,0,0,1-5.84-8.55,11.39,11.39,0,0,1,.69-8.2,19.1,19.1,0,0,1,5.17-6.22,41.24,41.24,0,0,1,6.75-4.49A36.22,36.22,0,0,1,803.18,431.18Z" transform="translate(-193.13 -11)"/><path class="cls-3" d="M1080.11,326.8a35.34,35.34,0,0,1,5-5.92,33.51,33.51,0,0,1,6.13-4.69,26.94,26.94,0,0,1,17.17-3.82A32,32,0,0,1,1116,314a40.67,40.67,0,0,1,5.14,2.14c1.22.64,1.9,1.09,1.9,1.09l-1.67.53c-1.07.36-2.62.86-4.54,1.42l-6.73,1.87c-2.53.69-5.33,1.32-8.26,2s-5.77,1.17-8.34,1.68-4.94.8-6.9,1.15C1082.62,326.57,1080.11,326.8,1080.11,326.8Z" transform="translate(-193.13 -11)"/><path class="cls-4" d="M1079.44,326.69l-.45.75,1-.12,1.83-.2c1.14-.15,2.78-.37,4.77-.7s4.36-.66,6.93-1.16,5.41-1,8.34-1.68,5.71-1.33,8.25-2l6.77-1.88c1.94-.56,3.52-1.07,4.61-1.43l1.75-.55,1-.34-.73-.48c-.11-.08-.88-.57-2.16-1.25a37.73,37.73,0,0,0-5.29-2.18,33,33,0,0,0-7.65-1.62,28.41,28.41,0,0,0-9.06.53,27.81,27.81,0,0,0-8.42,3.37,33.65,33.65,0,0,0-6.24,4.7A36,36,0,0,0,1079.44,326.69Zm22.25-4.09c-2.32.55-4.59.92-6.69,1.36s-4.1.77-5.89,1c-3.57.58-6.34,1-7.81,1.16a37.56,37.56,0,0,1,6.06-6.54,36.3,36.3,0,0,1,5.45-3.72,25.68,25.68,0,0,1,6.81-2.57,23.54,23.54,0,0,1,3.68-.55,30.54,30.54,0,0,1,3.58,0,31.21,31.21,0,0,1,6.5,1.05,38.28,38.28,0,0,1,8.27,3.32c-1.4.46-4.07,1.34-7.56,2.28-1.74.46-3.67,1.06-5.76,1.58-1,.26-2.13.53-3.24.78Z" transform="translate(-193.13 -11)"/><path class="cls-3" d="M1032.74,347.09a36.06,36.06,0,0,1,3.7-6.81,33,33,0,0,1,5.08-5.82,27,27,0,0,1,16.11-7.18,31.65,31.65,0,0,1,7.72.13,38.34,38.34,0,0,1,5.47,1.08c1.33.39,2.09.7,2.09.7l-1.54.85c-1,.56-2.4,1.36-4.18,2.28l-6.23,3.17c-2.35,1.17-5,2.34-7.71,3.62s-5.44,2.29-7.85,3.31-4.7,1.77-6.54,2.52C1035.15,346.36,1032.74,347.09,1032.74,347.09Z" transform="translate(-193.13 -11)"/><path class="cls-4" d="M1032.06,347.11l-.3.81,1-.31,1.74-.57c1.09-.37,2.64-.91,4.52-1.63s4.14-1.52,6.57-2.53,5.1-2.08,7.84-3.31,5.35-2.44,7.7-3.62l6.28-3.18c1.79-.94,3.23-1.75,4.24-2.32l1.6-.88.92-.53-.81-.33c-.13,0-1-.39-2.37-.8a37.85,37.85,0,0,0-5.62-1.09,32.25,32.25,0,0,0-7.83-.07,28.18,28.18,0,0,0-16.39,7.3,33.34,33.34,0,0,0-5.19,5.87A36.22,36.22,0,0,0,1032.06,347.11Zm21-8.46c-2.16,1-4.32,1.81-6.29,2.67s-3.87,1.57-5.58,2.2c-3.38,1.29-6,2.25-7.39,2.7a36.81,36.81,0,0,1,4.6-7.62,29.36,29.36,0,0,1,10.8-8.62,23.4,23.4,0,0,1,3.5-1.28,30.06,30.06,0,0,1,3.52-.71,31,31,0,0,1,6.59-.26,38.43,38.43,0,0,1,8.77,1.62c-1.28.72-3.73,2.12-7,3.73-1.62.8-3.4,1.77-5.35,2.69Z" transform="translate(-193.13 -11)"/><path class="cls-3" d="M991.6,373.15a36.26,36.26,0,0,1,2.7-7,30.43,30.43,0,0,1,10.22-11.92,28.08,28.08,0,0,1,7.85-3.45,37.51,37.51,0,0,1,7.46-1.15,34.7,34.7,0,0,1,5.53.13c1.36.13,2.15.29,2.15.29l-1.32,1.12-3.65,2.95c-1.53,1.24-3.37,2.66-5.46,4.17s-4.35,3.15-6.83,4.74a138.08,138.08,0,0,1-13,7.46C993.83,372.23,991.6,373.15,991.6,373.15Z" transform="translate(-193.13 -11)"/><path class="cls-4" d="M991,373.22l-.19.82.93-.38,1.6-.71c1-.45,2.45-1.13,4.18-2a140.58,140.58,0,0,0,13-7.49c2.48-1.58,4.74-3.23,6.83-4.74s3.95-3,5.5-4.2,2.84-2.25,3.71-3l1.38-1.18.79-.7-.85-.17a35.5,35.5,0,0,0-8.13-.43,37.85,37.85,0,0,0-7.54,1.22,28.69,28.69,0,0,0-8,3.54C994,360.52,991.09,372.72,991,373.22Zm19-10.6a132.75,132.75,0,0,1-17.49,9.59,39.66,39.66,0,0,1,3.43-7.87,28.5,28.5,0,0,1,8.88-9.68,26.87,26.87,0,0,1,6.33-3,33.55,33.55,0,0,1,6.31-1.29,36,36,0,0,1,8.8.07c-1.12.93-3.27,2.68-6.06,4.87-1.4,1.09-3,2.26-4.71,3.49S1011.93,361.36,1010,362.62Z" transform="translate(-193.13 -11)"/><path class="cls-3" d="M952.84,399s.2-.75.65-1.94a43.07,43.07,0,0,1,2.07-4.76,35.75,35.75,0,0,1,3.75-5.86,24.85,24.85,0,0,1,13.09-8.75,35.44,35.44,0,0,1,7.05-1.29,37.85,37.85,0,0,1,7.41.06s-1.65,1.74-4.44,4.26a103.56,103.56,0,0,1-11.48,9c-2.35,1.55-4.65,2.92-6.79,4.11s-4.11,2.11-5.79,2.88-3.05,1.36-4,1.71Z" transform="translate(-193.13 -11)"/><path class="cls-4" d="M952.21,399l-.21.8.92-.31,1.57-.57c1-.36,2.39-1,4.09-1.74s3.68-1.74,5.84-2.92,4.46-2.57,6.8-4.12a103.57,103.57,0,0,0,11.53-9.06c1.42-1.28,2.54-2.36,3.33-3.13l1.23-1.24L988,376l-.84-.12c-.52-.09-12.93-1.61-22.34,4.73a25.74,25.74,0,0,0-5.89,5.46,34.64,34.64,0,0,0-3.83,5.9A40.06,40.06,0,0,0,952.21,399Zm18.45-9.69a87.84,87.84,0,0,1-16.93,8.81,41.89,41.89,0,0,1,3.39-7.53,27.64,27.64,0,0,1,8.26-9.17c7.46-5,17.3-4.73,20.29-4.5A106,106,0,0,1,970.66,389.28Z" transform="translate(-193.13 -11)"/><path class="cls-3" d="M911.83,419.09a37.52,37.52,0,0,1,3.73-5.91,35.61,35.61,0,0,1,4.36-5,32,32,0,0,1,2.8-2.25A19.34,19.34,0,0,1,926,404a20.73,20.73,0,0,1,3.55-1.29,24.59,24.59,0,0,1,3.59-.79,40.76,40.76,0,0,1,6.76-.3,37.5,37.5,0,0,1,7.1.86s-1.68,1.52-4.56,3.73a62.38,62.38,0,0,1-5.21,3.57q-1.5.95-3.18,1.92c-1.12.61-2.31,1.19-3.53,1.77s-2.43,1.12-3.6,1.62-2.35.86-3.45,1.24c-2.22.72-4.23,1.34-5.95,1.74C914,418.81,911.83,419.09,911.83,419.09Z" transform="translate(-193.13 -11)"/><path class="cls-4" d="M911.23,419l-.36.72.93-.1,1.6-.25c1-.17,2.44-.43,4.19-.81s3.78-1,6-1.75c1.11-.39,2.29-.74,3.46-1.25s2.39-1,3.62-1.62,2.41-1.17,3.54-1.79,2.18-1.29,3.19-1.93a60.55,60.55,0,0,0,5.26-3.6c1.46-1.11,2.63-2.06,3.43-2.73l1.25-1.09.71-.64-.81-.2a37.2,37.2,0,0,0-7.49-.9,41.73,41.73,0,0,0-6.82.35,25.16,25.16,0,0,0-3.62.83,22.53,22.53,0,0,0-3.59,1.32,20.66,20.66,0,0,0-3.29,1.95,34.35,34.35,0,0,0-2.84,2.26,36.34,36.34,0,0,0-4.43,5A38.56,38.56,0,0,0,911.23,419Zm19-6a62.94,62.94,0,0,1-17.44,5.41c.34-.63.9-1.6,1.66-2.75s1.71-2.44,2.81-3.85a27.59,27.59,0,0,1,3.87-4c.37-.31.75-.61,1.15-.91s.79-.61,1.2-.9a18.64,18.64,0,0,1,5.53-2.62,28.32,28.32,0,0,1,2.92-.73,29,29,0,0,1,5.7-.48,41,41,0,0,1,8.11.67c-1,.85-2.94,2.5-5.6,4.39-1.34.91-2.86,1.9-4.52,2.91-.83.5-1.68,1-2.59,1.5S931.22,412.57,930.26,413Z" transform="translate(-193.13 -11)"/><path class="cls-3" d="M865.85,429.62a36.87,36.87,0,0,1,5.12-5,34.32,34.32,0,0,1,5.61-3.89,23.6,23.6,0,0,1,7-2.68,22.79,22.79,0,0,1,7.47-.32,33.67,33.67,0,0,1,6.56,1.33,37.49,37.49,0,0,1,6.58,2.52s-1.94,1.08-5.19,2.55c-1.65.69-3.64,1.44-5.87,2.21s-4.77,1.39-7.43,2-5.27.91-7.64,1.13-4.53.32-6.35.35C868.11,429.81,865.85,429.62,865.85,429.62Z" transform="translate(-193.13 -11)"/><path class="cls-4" d="M865.27,429.4l-.52.64,1,.09,1.67.09c1,0,2.55.08,4.4.07s4-.15,6.4-.35,5-.63,7.67-1.13,5.19-1.26,7.45-2,4.26-1.53,5.93-2.23,3-1.39,3.89-1.85l1.45-.76c.27-.15.55-.29.81-.46l-.72-.38a39.12,39.12,0,0,0-6.94-2.65,34.46,34.46,0,0,0-6.63-1.3,24,24,0,0,0-7.56.37,24.73,24.73,0,0,0-7.16,2.68,35.14,35.14,0,0,0-5.69,3.88A37.88,37.88,0,0,0,865.27,429.4Zm20.38-1.57A75.82,75.82,0,0,1,867,429.18a44.36,44.36,0,0,1,6-5.51,31.78,31.78,0,0,1,4.89-3.07,21.13,21.13,0,0,1,5.81-2.07,20.39,20.39,0,0,1,6.1-.39,31.35,31.35,0,0,1,5.61.87c1.75.45,3.31.95,4.61,1.41s2.33.91,3,1.21A68,68,0,0,1,885.65,427.83Z" transform="translate(-193.13 -11)"/><path class="cls-3" d="M818.59,433.23a38.85,38.85,0,0,1,5.81-4.49,30.43,30.43,0,0,1,14-5,29.91,29.91,0,0,1,14.36,3.1,40.93,40.93,0,0,1,4.55,2.48c1.09.7,1.71,1.15,1.71,1.15s-.54.2-1.54.48-2.42.69-4.21,1.12a86.31,86.31,0,0,1-14.18,2.14,95.07,95.07,0,0,1-14.46-.21C820.91,433.65,818.59,433.23,818.59,433.23Z" transform="translate(-193.13 -11)"/><path class="cls-4" d="M818,433l-.6.59,1,.17,1.7.26c1.07.15,2.61.36,4.49.51a94.73,94.73,0,0,0,14.53.22,87.28,87.28,0,0,0,14.26-2.15c1.81-.44,3.27-.84,4.29-1.13l1.17-.36.43-.15.91-.32-.66-.5a39.49,39.49,0,0,0-6.6-3.81,30.52,30.52,0,0,0-14.56-3C827.22,424,818.4,432.56,818,433Zm21,.76a95.64,95.64,0,0,1-19.24-.8c2.24-2,9.76-8.11,18.62-8.68a27.35,27.35,0,0,1,12.06,2.23,40.36,40.36,0,0,1,7.3,3.86c-1.29.38-3.75,1.09-7,1.78A89,89,0,0,1,839.05,433.71Z" transform="translate(-193.13 -11)"/><path class="cls-1" d="M226.46,311.09A184.38,184.38,0,0,1,251,313.61a245.55,245.55,0,0,1,23.94,5.47c7.87,2.19,15.62,4.74,23.27,7.52s15.21,5.77,22.7,8.89c30,12.5,58.86,27.14,87.83,41.41,14.48,7.18,28.94,14.47,43.21,22.16q10.71,5.76,21.24,11.86c7,4.07,13.94,8.33,20.83,12.49,13.75,8.29,27.67,16.3,42.65,21.08a104.43,104.43,0,0,0,11.34,3,86.79,86.79,0,0,0,11.57,1.4,84.33,84.33,0,0,0,23.16-2" transform="translate(-193.13 -11)"/><path class="cls-1" d="M587.17,466.33a104.29,104.29,0,0,1-28.65,2.5c-1.2-.08-2.41-.14-3.62-.24l-3.61-.39c-2.39-.29-4.73-.73-7.09-1.12a123.52,123.52,0,0,1-13.65-3.54,162,162,0,0,1-24.83-10.48c-7.75-4-15-8.29-22.06-12.53s-13.74-8.39-20.53-12.32-13.7-7.79-20.68-11.54c-14-7.52-28.21-14.71-42.62-21.86s-28.92-14.33-43.3-21.25S327.72,360,313.2,354c-7.26-3-14.56-5.91-21.82-8.54s-14.55-5-21.86-7.07-14.61-3.75-21.91-5a164.13,164.13,0,0,0-21.77-2.23c-.94,0-1.86-.08-2.78-.17l-2.69-.31a34.53,34.53,0,0,1-5.13-1,32.75,32.75,0,0,1-4.75-1.48c-.76-.3-1.51-.64-2.23-1s-1.42-.65-2.1-1c-5.44-3-9.68-7.13-10.79-12.58a13,13,0,0,1,1.06-8.13,19.8,19.8,0,0,1,6.25-7.36c.72-.55,1.49-1.09,2.3-1.6a28.52,28.52,0,0,1,2.57-1.38,43,43,0,0,1,5.84-2.29,53.51,53.51,0,0,1,6.58-1.34,29.32,29.32,0,0,1,3.51-.29c1.18-.05,2.38-.05,3.59,0a203.42,203.42,0,0,1,27.29,2.8,261.16,261.16,0,0,1,25.95,5.93c8.45,2.34,16.67,5.05,24.69,8s15.86,6,23.59,9.23c15.44,6.43,30.49,13.38,45.26,20.48,7.39,3.54,14.71,7.13,22,10.71L417.61,359c14.56,7.22,29.22,14.61,43.81,22.47,7.29,3.93,14.57,8,21.8,12.18s14.4,8.6,21.12,12.66c13.47,8.15,26.18,15.3,38.4,19.16a83.35,83.35,0,0,0,9,2.36c1.48.22,3,.52,4.43.69l2.18.24,2.19.14a64.37,64.37,0,0,0,17.68-1.55,42,42,0,0,1,8.93-1,37.12,37.12,0,0,1,4.36.22,30.84,30.84,0,0,1,4.25.69,26.79,26.79,0,0,1,4.06,1.17,24.13,24.13,0,0,1,3.77,1.7,17.12,17.12,0,0,1,6,5.42,12.93,12.93,0,0,1,2.11,7.87,16.83,16.83,0,0,1-.88,4.48,23.53,23.53,0,0,1-2.25,4.57,29.66,29.66,0,0,1-3.6,4.41,33.2,33.2,0,0,1-4.89,4A38.63,38.63,0,0,1,587.17,466.33Z" transform="translate(-193.13 -11)"/><path class="cls-1" d="M281.67,339.41s-.73.31-2,.76a42.46,42.46,0,0,1-5.14,1.45,40.92,40.92,0,0,1-7.1,1,27.51,27.51,0,0,1-7.95-.7,26.57,26.57,0,0,1-7.31-3,38.93,38.93,0,0,1-5.73-4,40.36,40.36,0,0,1-5.23-5.09s2.33-.15,6.1-.09c1.88,0,4.12.26,6.61.52s5.19.82,8,1.45a82.28,82.28,0,0,1,14.11,4.9c1.76.81,3.16,1.51,4.12,2S281.67,339.41,281.67,339.41Z" transform="translate(-193.13 -11)"/><path class="cls-1" d="M282.13,339.88l.78-.34L282,339l-.41-.24c-.27-.15-.65-.35-1.15-.6-1-.51-2.42-1.22-4.2-2a84.78,84.78,0,0,0-14.19-4.93c-2.83-.63-5.56-1.15-8-1.45s-4.77-.48-6.68-.53-3.47,0-4.55,0l-1.26,0-.46,0-1,.11.53.63a44,44,0,0,0,5.54,5.35,38.46,38.46,0,0,0,5.8,4,27.11,27.11,0,0,0,7.41,3,34.13,34.13,0,0,0,15.22-.19A43,43,0,0,0,282.13,339.88Zm-20.3-7.7a81.82,81.82,0,0,1,18.54,7.1,45.5,45.5,0,0,1-8.22,2.25,34.12,34.12,0,0,1-6,.58,25,25,0,0,1-12.53-3,34.6,34.6,0,0,1-5-3.21c-1.48-1.17-2.77-2.24-3.82-3.23s-1.85-1.83-2.35-2.38A72,72,0,0,1,261.83,332.18Z" transform="translate(-193.13 -11)"/><path class="cls-1" d="M328.59,357.85a39.23,39.23,0,0,1-7.51,1.34,33.81,33.81,0,0,1-15.62-1.94,29.16,29.16,0,0,1-7.21-4.29,36.49,36.49,0,0,1-5.24-5.11,38.9,38.9,0,0,1-4.41-6.1s2.41.34,6.23,1.18c1.9.45,4.15,1,6.62,1.77s5.18,1.68,7.95,2.82a105.69,105.69,0,0,1,13.76,6.85C326.57,356.41,328.59,357.85,328.59,357.85Z" transform="translate(-193.13 -11)"/><path class="cls-1" d="M329,358.37l.83-.26-.86-.61-.4-.28-1.1-.74c-1-.63-2.34-1.51-4.06-2.54a105.61,105.61,0,0,0-13.83-6.88c-2.77-1.14-5.48-2.05-8-2.83s-4.76-1.33-6.69-1.79-3.52-.73-4.62-.92l-1.76-.29-1-.13.41.74a39.64,39.64,0,0,0,4.66,6.44,38,38,0,0,0,5.33,5.12,30.28,30.28,0,0,0,7.33,4.32C316.31,362.18,328.47,358.52,329,358.37ZM309.21,348a103.55,103.55,0,0,1,18.07,9.58c-3,.74-12.86,2.77-21.64-.78A31.22,31.22,0,0,1,295,349.25a45.72,45.72,0,0,1-5.3-6.8A94.14,94.14,0,0,1,309.21,348Z" transform="translate(-193.13 -11)"/><path class="cls-1" d="M373.63,379.1s-12.59,3.26-23.43-1.91a34,34,0,0,1-12.11-10.38,39.18,39.18,0,0,1-4-6.51,108.79,108.79,0,0,1,20.65,7.41A115.52,115.52,0,0,1,373.63,379.1Z" transform="translate(-193.13 -11)"/><path class="cls-1" d="M374,379.63l.85-.22-.85-.64-1.48-1.09c-.94-.68-2.31-1.62-4-2.73a116.91,116.91,0,0,0-13.61-7.69,114.48,114.48,0,0,0-14.5-5.7c-1.92-.61-3.51-1-4.61-1.34l-1.77-.45-1-.23.36.79c.25.51,5.57,12,16.59,17.31S373.51,379.78,374,379.63Zm-19.53-11.47a118.63,118.63,0,0,1,17.81,10.6c-3.05.61-13.15,2.15-21.9-2s-13.82-12.91-15.27-15.64A111.33,111.33,0,0,1,354.51,368.16Z" transform="translate(-193.13 -11)"/><path class="cls-1" d="M418.57,401.4a38.52,38.52,0,0,1-7.64.9A30.81,30.81,0,0,1,383,388.45a38.6,38.6,0,0,1-3.93-6.67s2.44.64,6.25,2a127,127,0,0,1,14.45,6A116.35,116.35,0,0,1,418.57,401.4Z" transform="translate(-193.13 -11)"/><path class="cls-1" d="M419,401.94l.85-.21-.83-.65L417.52,400c-.93-.68-2.27-1.65-4-2.77A122.08,122.08,0,0,0,400,389.32a127.77,127.77,0,0,0-14.51-6.05c-1.93-.67-3.51-1.17-4.63-1.51l-1.77-.51-1-.27.35.81c.2.49,5.37,12.33,16.49,17.84S418.43,402.07,419,401.94Zm-19.4-11.72a120.32,120.32,0,0,1,17.7,10.83c-3,.57-13.13,2-21.92-2.32s-13.81-13.34-15.18-16.12A126.06,126.06,0,0,1,399.57,390.22Z" transform="translate(-193.13 -11)"/><path class="cls-1" d="M463.58,425.58a41.34,41.34,0,0,1-7.6.55A30.56,30.56,0,0,1,429,411.55a39.43,39.43,0,0,1-3.73-6.71s2.4.67,6.15,2.05a111.59,111.59,0,0,1,14.12,6.35A103.36,103.36,0,0,1,463.58,425.58Z" transform="translate(-193.13 -11)"/><path class="cls-1" d="M463.94,426.14l.85-.16-.78-.7-1.38-1.17c-.88-.74-2.16-1.75-3.77-2.95a105.34,105.34,0,0,0-13.05-8.36,112.32,112.32,0,0,0-14.18-6.38c-1.89-.7-3.46-1.22-4.56-1.57l-1.74-.54-1-.29.32.81c.21.52,5.08,12.34,15.72,18.09a34.71,34.71,0,0,0,15.56,3.79A40.72,40.72,0,0,0,463.94,426.14Zm-18.6-12.46a104.31,104.31,0,0,1,17,11.49c-3.06.41-13,1.41-21.49-3.13s-13.14-13.55-14.47-16.35A111.07,111.07,0,0,1,445.34,413.68Z" transform="translate(-193.13 -11)"/><path class="cls-1" d="M510.7,452.75s-.82.19-2.27.36a37.86,37.86,0,0,1-5.89.26A34.79,34.79,0,0,1,486,448.9a33.34,33.34,0,0,1-11.41-11.84,41.37,41.37,0,0,1-2.49-4.92c-.53-1.25-.78-2-.78-2s2.33.81,6,2.45a138.76,138.76,0,0,1,14,7.3c5.37,3.19,10.16,6.44,13.68,8.86l4.18,2.92Z" transform="translate(-193.13 -11)"/><path class="cls-1" d="M511.16,453.31l.89-.19-.92-.69-1.61-1.15-4.23-3c-3.56-2.43-8.37-5.7-13.72-8.88a141.92,141.92,0,0,0-14.08-7.33c-1.86-.84-3.37-1.45-4.44-1.87l-1.24-.48-.46-.17-1-.34.27.82a38.57,38.57,0,0,0,3.45,7.32,34,34,0,0,0,11.63,11.94A35.61,35.61,0,0,0,502.52,454,36.12,36.12,0,0,0,511.16,453.31Zm-20.1-13c4.22,2.52,8.13,5.08,11.3,7.24s5.63,3.92,6.93,4.82a39.21,39.21,0,0,1-9.39.28,32.91,32.91,0,0,1-13.68-4.17c-8.86-5.27-12.8-14.59-13.94-17.44A129.55,129.55,0,0,1,491.06,440.3Z" transform="translate(-193.13 -11)"/><path class="cls-1" d="M567.31,466.4a23.14,23.14,0,0,1-2,1.39,37.44,37.44,0,0,1-5.71,2.85c-1.24.46-2.62.91-4.11,1.32a38.76,38.76,0,0,1-4.8.87,34.89,34.89,0,0,1-5.25.18,27.27,27.27,0,0,1-5.49-.71,33.47,33.47,0,0,1-16.59-9.41,32.88,32.88,0,0,1-3.88-4.69c-.84-1.22-1.26-2-1.26-2l1.89.45c1.21.3,2.92.78,5.1,1.29,4.29,1.15,10.3,2.57,17,4.07,1.68.38,3.32.78,4.93,1.06s3.14.69,4.65.94,2.93.55,4.27.76l3.75.6,5.48.75Z" transform="translate(-193.13 -11)"/><path class="cls-1" d="M568,466.68l.75-.6-1.22-.16-2.11-.26c-1.33-.16-3.23-.45-5.55-.75l-3.76-.6c-1.35-.21-2.78-.51-4.28-.76s-3-.64-4.64-.94-3.23-.68-4.9-1.05c-6.66-1.5-12.68-2.92-17-4.08-2.2-.52-3.93-1-5.17-1.31l-2-.47c-.39-.08-.76-.18-1.13-.27l.43.82a22.33,22.33,0,0,0,1.42,2.23,33.07,33.07,0,0,0,4,4.81c.91.91,1.93,1.86,3.07,2.8a45.33,45.33,0,0,0,3.88,2.69,30.33,30.33,0,0,0,4.63,2.33c.83.34,1.69.67,2.57,1s1.82.51,2.77.72a28.57,28.57,0,0,0,5.61.73,35,35,0,0,0,5.35-.15,36.6,36.6,0,0,0,4.88-.87c1.52-.4,2.92-.84,4.18-1.31A32.28,32.28,0,0,0,568,466.68Zm-25.92-4.15c5.29,1.22,10.36,2.18,14.54,2.87,2.08.33,3.94.65,5.48.83s2.79.42,3.64.5a28,28,0,0,1-3.42,2c-.78.39-1.66.82-2.62,1.22s-2,.75-3.18,1.11a33,33,0,0,1-16.5.75,30.76,30.76,0,0,1-8.07-3,36.77,36.77,0,0,1-6.15-4.33,42.15,42.15,0,0,1-4.14-4.3c-1-1.31-1.77-2.39-2.22-3.09l8.51,2.16,6.54,1.6C536.92,461.33,539.42,462,542.11,462.53Z" transform="translate(-193.13 -11)"/><path d="M226.46,311.09A184.38,184.38,0,0,1,251,313.61a245.55,245.55,0,0,1,23.94,5.47c7.87,2.19,15.62,4.74,23.27,7.52s15.21,5.77,22.7,8.89c30,12.5,58.86,27.14,87.83,41.41,14.48,7.18,28.94,14.47,43.21,22.16q10.71,5.76,21.24,11.86c7,4.07,13.94,8.33,20.83,12.49,13.75,8.29,27.67,16.3,42.65,21.08a104.43,104.43,0,0,0,11.34,3,86.79,86.79,0,0,0,11.57,1.4,84.33,84.33,0,0,0,23.16-2" transform="translate(-193.13 -11)"/><path class="cls-2" d="M587.17,466.33a104.29,104.29,0,0,1-28.65,2.5c-1.2-.08-2.41-.14-3.62-.24l-3.61-.39c-2.39-.29-4.73-.73-7.09-1.12a123.52,123.52,0,0,1-13.65-3.54,162,162,0,0,1-24.83-10.48c-7.75-4-15-8.29-22.06-12.53s-13.74-8.39-20.53-12.32-13.7-7.79-20.68-11.54c-14-7.52-28.21-14.71-42.62-21.86s-28.92-14.33-43.3-21.25S327.72,360,313.2,354c-7.26-3-14.56-5.91-21.82-8.54s-14.55-5-21.86-7.07-14.61-3.75-21.91-5a164.13,164.13,0,0,0-21.77-2.23c-.94,0-1.86-.08-2.78-.17l-2.69-.31a34.53,34.53,0,0,1-5.13-1,32.75,32.75,0,0,1-4.75-1.48c-.76-.3-1.51-.64-2.23-1s-1.42-.65-2.1-1c-5.44-3-9.68-7.13-10.79-12.58a13,13,0,0,1,1.06-8.13,19.8,19.8,0,0,1,6.25-7.36c.72-.55,1.49-1.09,2.3-1.6a28.52,28.52,0,0,1,2.57-1.38,43,43,0,0,1,5.84-2.29,53.51,53.51,0,0,1,6.58-1.34,29.32,29.32,0,0,1,3.51-.29c1.18-.05,2.38-.05,3.59,0a203.42,203.42,0,0,1,27.29,2.8,261.16,261.16,0,0,1,25.95,5.93c8.45,2.34,16.67,5.05,24.69,8s15.86,6,23.59,9.23c15.44,6.43,30.49,13.38,45.26,20.48,7.39,3.54,14.71,7.13,22,10.71L417.61,359c14.56,7.22,29.22,14.61,43.81,22.47,7.29,3.93,14.57,8,21.8,12.18s14.4,8.6,21.12,12.66c13.47,8.15,26.18,15.3,38.4,19.16a83.35,83.35,0,0,0,9,2.36c1.48.22,3,.52,4.43.69l2.18.24,2.19.14a64.37,64.37,0,0,0,17.68-1.55,42,42,0,0,1,8.93-1,37.12,37.12,0,0,1,4.36.22,30.84,30.84,0,0,1,4.25.69,26.79,26.79,0,0,1,4.06,1.17,24.13,24.13,0,0,1,3.77,1.7,17.12,17.12,0,0,1,6,5.42,12.93,12.93,0,0,1,2.11,7.87,16.83,16.83,0,0,1-.88,4.48,23.53,23.53,0,0,1-2.25,4.57,29.66,29.66,0,0,1-3.6,4.41,33.2,33.2,0,0,1-4.89,4A38.63,38.63,0,0,1,587.17,466.33Z" transform="translate(-193.13 -11)"/><path class="cls-3" d="M281.67,339.41s-.73.31-2,.76a42.46,42.46,0,0,1-5.14,1.45,40.92,40.92,0,0,1-7.1,1,27.51,27.51,0,0,1-7.95-.7,26.57,26.57,0,0,1-7.31-3,38.93,38.93,0,0,1-5.73-4,40.36,40.36,0,0,1-5.23-5.09s2.33-.15,6.1-.09c1.88,0,4.12.26,6.61.52s5.19.82,8,1.45a82.28,82.28,0,0,1,14.11,4.9c1.76.81,3.16,1.51,4.12,2S281.67,339.41,281.67,339.41Z" transform="translate(-193.13 -11)"/><path class="cls-4" d="M282.13,339.88l.78-.34L282,339l-.41-.24c-.27-.15-.65-.35-1.15-.6-1-.51-2.42-1.22-4.2-2a84.78,84.78,0,0,0-14.19-4.93c-2.83-.63-5.56-1.15-8-1.45s-4.77-.48-6.68-.53-3.47,0-4.55,0l-1.26,0-.46,0-1,.11.53.63a44,44,0,0,0,5.54,5.35,38.46,38.46,0,0,0,5.8,4,27.11,27.11,0,0,0,7.41,3,34.13,34.13,0,0,0,15.22-.19A43,43,0,0,0,282.13,339.88Zm-20.3-7.7a81.82,81.82,0,0,1,18.54,7.1,45.5,45.5,0,0,1-8.22,2.25,34.12,34.12,0,0,1-6,.58,25,25,0,0,1-12.53-3,34.6,34.6,0,0,1-5-3.21c-1.48-1.17-2.77-2.24-3.82-3.23s-1.85-1.83-2.35-2.38A72,72,0,0,1,261.83,332.18Z" transform="translate(-193.13 -11)"/><path class="cls-3" d="M328.59,357.85a39.23,39.23,0,0,1-7.51,1.34,33.81,33.81,0,0,1-15.62-1.94,29.16,29.16,0,0,1-7.21-4.29,36.49,36.49,0,0,1-5.24-5.11,38.9,38.9,0,0,1-4.41-6.1s2.41.34,6.23,1.18c1.9.45,4.15,1,6.62,1.77s5.18,1.68,7.95,2.82a105.69,105.69,0,0,1,13.76,6.85C326.57,356.41,328.59,357.85,328.59,357.85Z" transform="translate(-193.13 -11)"/><path class="cls-4" d="M329,358.37l.83-.26-.86-.61-.4-.28-1.1-.74c-1-.63-2.34-1.51-4.06-2.54a105.61,105.61,0,0,0-13.83-6.88c-2.77-1.14-5.48-2.05-8-2.83s-4.76-1.33-6.69-1.79-3.52-.73-4.62-.92l-1.76-.29-1-.13.41.74a39.64,39.64,0,0,0,4.66,6.44,38,38,0,0,0,5.33,5.12,30.28,30.28,0,0,0,7.33,4.32C316.31,362.18,328.47,358.52,329,358.37ZM309.21,348a103.55,103.55,0,0,1,18.07,9.58c-3,.74-12.86,2.77-21.64-.78A31.22,31.22,0,0,1,295,349.25a45.72,45.72,0,0,1-5.3-6.8A94.14,94.14,0,0,1,309.21,348Z" transform="translate(-193.13 -11)"/><path class="cls-3" d="M373.63,379.1s-12.59,3.26-23.43-1.91a34,34,0,0,1-12.11-10.38,39.18,39.18,0,0,1-4-6.51,108.79,108.79,0,0,1,20.65,7.41A115.52,115.52,0,0,1,373.63,379.1Z" transform="translate(-193.13 -11)"/><path class="cls-4" d="M374,379.63l.85-.22-.85-.64-1.48-1.09c-.94-.68-2.31-1.62-4-2.73a116.91,116.91,0,0,0-13.61-7.69,114.48,114.48,0,0,0-14.5-5.7c-1.92-.61-3.51-1-4.61-1.34l-1.77-.45-1-.23.36.79c.25.51,5.57,12,16.59,17.31S373.51,379.78,374,379.63Zm-19.53-11.47a118.63,118.63,0,0,1,17.81,10.6c-3.05.61-13.15,2.15-21.9-2s-13.82-12.91-15.27-15.64A111.33,111.33,0,0,1,354.51,368.16Z" transform="translate(-193.13 -11)"/><path class="cls-3" d="M418.57,401.4a38.52,38.52,0,0,1-7.64.9A30.81,30.81,0,0,1,383,388.45a38.6,38.6,0,0,1-3.93-6.67s2.44.64,6.25,2a127,127,0,0,1,14.45,6A116.35,116.35,0,0,1,418.57,401.4Z" transform="translate(-193.13 -11)"/><path class="cls-4" d="M419,401.94l.85-.21-.83-.65L417.52,400c-.93-.68-2.27-1.65-4-2.77A122.08,122.08,0,0,0,400,389.32a127.77,127.77,0,0,0-14.51-6.05c-1.93-.67-3.51-1.17-4.63-1.51l-1.77-.51-1-.27.35.81c.2.49,5.37,12.33,16.49,17.84S418.43,402.07,419,401.94Zm-19.4-11.72a120.32,120.32,0,0,1,17.7,10.83c-3,.57-13.13,2-21.92-2.32s-13.81-13.34-15.18-16.12A126.06,126.06,0,0,1,399.57,390.22Z" transform="translate(-193.13 -11)"/><path class="cls-3" d="M463.58,425.58a41.34,41.34,0,0,1-7.6.55A30.56,30.56,0,0,1,429,411.55a39.43,39.43,0,0,1-3.73-6.71s2.4.67,6.15,2.05a111.59,111.59,0,0,1,14.12,6.35A103.36,103.36,0,0,1,463.58,425.58Z" transform="translate(-193.13 -11)"/><path class="cls-4" d="M463.94,426.14l.85-.16-.78-.7-1.38-1.17c-.88-.74-2.16-1.75-3.77-2.95a105.34,105.34,0,0,0-13.05-8.36,112.32,112.32,0,0,0-14.18-6.38c-1.89-.7-3.46-1.22-4.56-1.57l-1.74-.54-1-.29.32.81c.21.52,5.08,12.34,15.72,18.09a34.71,34.71,0,0,0,15.56,3.79A40.72,40.72,0,0,0,463.94,426.14Zm-18.6-12.46a104.31,104.31,0,0,1,17,11.49c-3.06.41-13,1.41-21.49-3.13s-13.14-13.55-14.47-16.35A111.07,111.07,0,0,1,445.34,413.68Z" transform="translate(-193.13 -11)"/><path class="cls-3" d="M510.7,452.75s-.82.19-2.27.36a37.86,37.86,0,0,1-5.89.26A34.79,34.79,0,0,1,486,448.9a33.34,33.34,0,0,1-11.41-11.84,41.37,41.37,0,0,1-2.49-4.92c-.53-1.25-.78-2-.78-2s2.33.81,6,2.45a138.76,138.76,0,0,1,14,7.3c5.37,3.19,10.16,6.44,13.68,8.86l4.18,2.92Z" transform="translate(-193.13 -11)"/><path class="cls-4" d="M511.16,453.31l.89-.19-.92-.69-1.61-1.15-4.23-3c-3.56-2.43-8.37-5.7-13.72-8.88a141.92,141.92,0,0,0-14.08-7.33c-1.86-.84-3.37-1.45-4.44-1.87l-1.24-.48-.46-.17-1-.34.27.82a38.57,38.57,0,0,0,3.45,7.32,34,34,0,0,0,11.63,11.94A35.61,35.61,0,0,0,502.52,454,36.12,36.12,0,0,0,511.16,453.31Zm-20.1-13c4.22,2.52,8.13,5.08,11.3,7.24s5.63,3.92,6.93,4.82a39.21,39.21,0,0,1-9.39.28,32.91,32.91,0,0,1-13.68-4.17c-8.86-5.27-12.8-14.59-13.94-17.44A129.55,129.55,0,0,1,491.06,440.3Z" transform="translate(-193.13 -11)"/><path class="cls-3" d="M567.31,466.4a23.14,23.14,0,0,1-2,1.39,37.44,37.44,0,0,1-5.71,2.85c-1.24.46-2.62.91-4.11,1.32a38.76,38.76,0,0,1-4.8.87,34.89,34.89,0,0,1-5.25.18,27.27,27.27,0,0,1-5.49-.71,33.47,33.47,0,0,1-16.59-9.41,32.88,32.88,0,0,1-3.88-4.69c-.84-1.22-1.26-2-1.26-2l1.89.45c1.21.3,2.92.78,5.1,1.29,4.29,1.15,10.3,2.57,17,4.07,1.68.38,3.32.78,4.93,1.06s3.14.69,4.65.94,2.93.55,4.27.76l3.75.6,5.48.75Z" transform="translate(-193.13 -11)"/><path class="cls-4" d="M568,466.68l.75-.6-1.22-.16-2.11-.26c-1.33-.16-3.23-.45-5.55-.75l-3.76-.6c-1.35-.21-2.78-.51-4.28-.76s-3-.64-4.64-.94-3.23-.68-4.9-1.05c-6.66-1.5-12.68-2.92-17-4.08-2.2-.52-3.93-1-5.17-1.31l-2-.47c-.39-.08-.76-.18-1.13-.27l.43.82a22.33,22.33,0,0,0,1.42,2.23,33.07,33.07,0,0,0,4,4.81c.91.91,1.93,1.86,3.07,2.8a45.33,45.33,0,0,0,3.88,2.69,30.33,30.33,0,0,0,4.63,2.33c.83.34,1.69.67,2.57,1s1.82.51,2.77.72a28.57,28.57,0,0,0,5.61.73,35,35,0,0,0,5.35-.15,36.6,36.6,0,0,0,4.88-.87c1.52-.4,2.92-.84,4.18-1.31A32.28,32.28,0,0,0,568,466.68Zm-25.92-4.15c5.29,1.22,10.36,2.18,14.54,2.87,2.08.33,3.94.65,5.48.83s2.79.42,3.64.5a28,28,0,0,1-3.42,2c-.78.39-1.66.82-2.62,1.22s-2,.75-3.18,1.11a33,33,0,0,1-16.5.75,30.76,30.76,0,0,1-8.07-3,36.77,36.77,0,0,1-6.15-4.33,42.15,42.15,0,0,1-4.14-4.3c-1-1.31-1.77-2.39-2.22-3.09l8.51,2.16,6.54,1.6C536.92,461.33,539.42,462,542.11,462.53Z" transform="translate(-193.13 -11)"/><path class="cls-1" d="M933.25,703.5c-.39-6.6-.83-13.08-2.3-19.25a75.08,75.08,0,0,0-6.58-17.9c-5.86-11.42-14.26-21.53-23.7-30.48s-20.08-16.75-31-24.23-22.15-14.66-33-22.58c-5.42-3.95-10.75-8.09-15.86-12.52s-10-9.13-14.64-14-9.16-9.81-13.57-14.83-8.73-10.12-13-15.29a314.09,314.09,0,0,1-23.68-32.6c-1.74-2.89-3.53-5.75-5.13-8.73-.8-1.49-1.67-2.94-2.42-4.46l-2.28-4.54c-.79-1.5-1.46-3.06-2.15-4.61s-1.4-3.09-2-4.66l-1.84-4.75c-.3-.8-.62-1.58-.9-2.39l-.79-2.43" transform="translate(-193.13 -11)"/><path class="cls-1" d="M757.38,457c3.58,11.08,9.13,21.86,15.55,32.32a294.39,294.39,0,0,0,22.16,30.48q6.12,7.44,12.55,14.77c4.28,4.88,8.56,9.62,12.91,14.13s8.79,8.78,13.36,12.75,9.45,7.76,14.55,11.47c10.2,7.44,21.26,14.54,32.52,22.24,5.62,3.86,11.3,7.87,16.92,12.18a206,206,0,0,1,16.53,14c10.6,10.08,20.48,21.78,27.74,35.87a95.16,95.16,0,0,1,8.29,22.63,90.19,90.19,0,0,1,1.93,11.74c.4,3.76.63,7.35.83,10.76a27.22,27.22,0,0,1-4.53,17.19,26.19,26.19,0,0,1-5.44,5.87,18.82,18.82,0,0,1-7.19,3.6,13.87,13.87,0,0,1-8.06-.45,16.37,16.37,0,0,1-3.85-2,20.47,20.47,0,0,1-3.48-3.14c-4.36-4.85-7-12.12-7.39-18.74-.18-3.2-.38-6.14-.66-8.81a52.12,52.12,0,0,0-1.18-7.19,55.63,55.63,0,0,0-4.86-13.18c-4.47-8.73-11.39-17.25-19.67-25.09a166,166,0,0,0-13.35-11.32c-4.8-3.69-9.89-7.29-15.18-10.91-10.58-7.25-22-14.54-33.49-22.93-5.75-4.19-11.53-8.67-17.19-13.57s-10.92-10-15.91-15.18-9.7-10.38-14.23-15.55-9-10.41-13.42-15.8A334.13,334.13,0,0,1,739,510.4c-1.91-3.15-3.84-6.26-5.61-9.56-.9-1.64-1.83-3.23-2.68-4.92l-2.53-5.05c-.87-1.66-1.63-3.41-2.41-5.16s-1.56-3.46-2.29-5.24l-2.09-5.4c-.34-.9-.71-1.79-1-2.71l-.91-2.78A37.41,37.41,0,0,1,718,463.8a38,38,0,0,1-.29-5.68c0-.91.09-1.81.18-2.68a21.55,21.55,0,0,1,.48-2.59,26.19,26.19,0,0,1,1.58-4.7,17.78,17.78,0,0,1,5.35-7,14.77,14.77,0,0,1,7.46-3,17.64,17.64,0,0,1,8,1,26.25,26.25,0,0,1,7,4,23.74,23.74,0,0,1,3,2.81c.9,1,1.83,2.1,2.66,3.25a23.43,23.43,0,0,1,2.16,3.69A26.74,26.74,0,0,1,757.38,457Z" transform="translate(-193.13 -11)"/><path class="cls-1" d="M933.93,648.08s.76.19,2,.65a26.93,26.93,0,0,1,4.88,2.39,26.24,26.24,0,0,1,10.83,12.42,23.86,23.86,0,0,1,1.74,9c0,.72,0,1.43,0,2.12s-.14,1.39-.23,2a35.54,35.54,0,0,1-.73,3.67,27.56,27.56,0,0,1-2,5.23,21.27,21.27,0,0,1-1.07,1.85l-2.1-6-1.09-3-.58-1.67c-.23-.56-.46-1.14-.69-1.73l-1.41-3.73c-.54-1.27-1.07-2.58-1.59-3.94-2.18-5.35-4.11-10.2-5.61-13.67Z" transform="translate(-193.13 -11)"/><path class="cls-1" d="M933.87,647.44l-.82-.2.36.93,2.42,5.8c1.51,3.49,3.44,8.35,5.61,13.66.51,1.35,1,2.65,1.58,3.91s1,2.53,1.4,3.72c.24.59.47,1.17.69,1.73s.4,1.14.59,1.68c.39,1.08.76,2.09,1.09,3,1.29,3.69,2.11,6,2.12,6.09l.36,1,.47-.71a24.93,24.93,0,0,0,3.23-7.48,32.72,32.72,0,0,0,.72-3.74c.1-.67.17-1.37.23-2.08s0-1.43,0-2.16a24.71,24.71,0,0,0-1.81-9.22,26.91,26.91,0,0,0-11-12.7A26.54,26.54,0,0,0,933.87,647.44Zm8.5,19.82c-3.35-8.54-6.48-15.69-7.52-18.28a29.24,29.24,0,0,1,7.72,3.95,32.15,32.15,0,0,1,4.8,4.45,29.57,29.57,0,0,1,2.1,3,18.59,18.59,0,0,1,1.72,3.39A23.46,23.46,0,0,1,952.8,671a34.19,34.19,0,0,1,0,3.5,27.14,27.14,0,0,1-.43,3.25,26.66,26.66,0,0,1-2.95,8.41C948.54,683.5,945.79,675.74,942.37,667.26Z" transform="translate(-193.13 -11)"/><path class="cls-1" d="M902,613.76s.75-.06,2,0a31.34,31.34,0,0,1,5.14.51A25.5,25.5,0,0,1,922.67,621a20,20,0,0,1,2.68,3.3,27.18,27.18,0,0,1,2,3.55,29.77,29.77,0,0,1,2.12,7,33.13,33.13,0,0,1,.49,5.29,20.41,20.41,0,0,1-.09,2.11l-1.21-1.11c-.79-.69-1.91-1.7-3.25-3s-3-2.7-4.66-4.39c-.86-.83-1.78-1.67-2.7-2.58l-2.82-2.8c-3.8-3.9-7.12-7.48-9.45-10.2-1.17-1.35-2.12-2.43-2.75-3.22Z" transform="translate(-193.13 -11)"/><path class="cls-1" d="M901.81,613.19l-.82.07.58.75,1,1.28c.65.8,1.61,1.9,2.79,3.26,2.35,2.74,5.68,6.33,9.46,10.21l2.82,2.79c.91.91,1.83,1.75,2.69,2.58,1.7,1.69,3.35,3.11,4.68,4.41s2.49,2.3,3.29,3l1.25,1.16.75.66.09-.84a20.52,20.52,0,0,0,.11-2.39,32.86,32.86,0,0,0-.52-5.45,30.49,30.49,0,0,0-2.21-7.07,26.88,26.88,0,0,0-2-3.59,20.76,20.76,0,0,0-2.74-3.36,26.1,26.1,0,0,0-13.65-7A30,30,0,0,0,901.81,613.19Zm13.75,14.86c-6-6.08-10.78-11.72-12.45-13.74a29.94,29.94,0,0,1,8.16,1,27.78,27.78,0,0,1,2.8.86,28.43,28.43,0,0,1,2.85,1.28,21.32,21.32,0,0,1,5.4,3.94,24.69,24.69,0,0,1,6.09,11.3,31.22,31.22,0,0,1,.92,8.42c-1-.89-3-2.67-5.38-4.94S918.6,631.1,915.56,628.05Z" transform="translate(-193.13 -11)"/><path class="cls-1" d="M867.2,588.87a32.15,32.15,0,0,1,6.81-.55,24.33,24.33,0,0,1,13.32,3.91c4.32,3,7,7.59,8.56,11.37a35.84,35.84,0,0,1,1.55,4.84c.29,1.21.39,2,.39,2l-1.39-.68c-.89-.44-2.16-1.09-3.69-1.93a124,124,0,0,1-11.41-6.95,100,100,0,0,1-10.25-8.18C868.62,590.42,867.2,588.87,867.2,588.87Z" transform="translate(-193.13 -11)"/><path class="cls-1" d="M867,588.34l-.77.17.59.65.28.3.79.81c.68.68,1.67,1.65,2.92,2.79a98.93,98.93,0,0,0,10.29,8.21,126.06,126.06,0,0,0,11.44,7c1.54.85,2.83,1.51,3.74,2l1.45.71.85.41-.11-.81a30.8,30.8,0,0,0-2-7.21,26,26,0,0,0-8.77-11.48C878.76,585.71,867.44,588.26,867,588.34Zm14.67,12.11a94.81,94.81,0,0,1-13.36-11.2c2.73-.42,11.78-1.44,18.77,3.4a23.33,23.33,0,0,1,7.46,9.19,33.27,33.27,0,0,1,2.57,7.64A128,128,0,0,1,881.63,600.45Z" transform="translate(-193.13 -11)"/><path class="cls-1" d="M834.83,565.48s.7-.11,1.86-.17a37,37,0,0,1,4.65,0c3.69.23,8.27,1.05,12.09,3.8s6.21,7,7.66,10.54a33.66,33.66,0,0,1,2,6.46s-1.95-.71-4.91-2.12a71.15,71.15,0,0,1-10.86-6.37,60.63,60.63,0,0,1-9.21-8.2c-1.05-1.16-1.87-2.14-2.42-2.83S834.83,565.48,834.83,565.48Z" transform="translate(-193.13 -11)"/><path class="cls-1" d="M834.67,564.94l-.75.11.47.68.23.31.63.84c.57.71,1.41,1.7,2.47,2.88A61.28,61.28,0,0,0,847,578a72.9,72.9,0,0,0,10.91,6.4c1.49.71,2.75,1.25,3.63,1.62l1.41.55.83.31-.14-.78c-.06-.5-2.18-11.87-9.91-17.43a23.51,23.51,0,0,0-12.19-3.92A37.17,37.17,0,0,0,834.67,564.94Zm12.91,12.26a59.31,59.31,0,0,1-11.8-11.28,37.34,37.34,0,0,1,7.4.07,21,21,0,0,1,10,3.5c6.15,4.42,8.56,13.06,9.18,15.76A72.57,72.57,0,0,1,847.58,577.2Z" transform="translate(-193.13 -11)"/><path class="cls-1" d="M806.27,536.78a35.26,35.26,0,0,1,6.62,1.05c3.7.95,8.16,2.71,11.37,6s4.66,7.73,5.41,11.35a36.33,36.33,0,0,1,.75,6.45,42.92,42.92,0,0,1-4.35-2.62,58.36,58.36,0,0,1-9.38-7.91,66,66,0,0,1-7.71-9.81C807.21,538.61,806.27,536.78,806.27,536.78Z" transform="translate(-193.13 -11)"/><path class="cls-1" d="M806.18,536.21l-.79,0,.4.78.19.36.54.95c.47.82,1.15,2,2.05,3.36a67.36,67.36,0,0,0,7.76,9.87,59.26,59.26,0,0,0,9.44,8c1.32.89,2.42,1.57,3.2,2l.92.51.34.18.74.37v-.76a37,37,0,0,0-.81-6.8,23.31,23.31,0,0,0-5.54-11.43C818.13,536.75,806.68,536.23,806.18,536.21Zm10.87,14.6a69.28,69.28,0,0,1-9.87-13.4c2.75.25,11.55,1.43,16.72,6.82a20.82,20.82,0,0,1,4.82,9.28,38.25,38.25,0,0,1,1.12,7.28A56.74,56.74,0,0,1,817.05,550.81Z" transform="translate(-193.13 -11)"/><path class="cls-1" d="M779.54,503.68s.71.09,1.88.33a36.29,36.29,0,0,1,4.55,1.25,30.73,30.73,0,0,1,5.61,2.58,19.64,19.64,0,0,1,5.17,4.44c3,3.71,4.12,8.4,4.54,12.21a34.17,34.17,0,0,1,.14,6.71s-1.69-1.18-4.15-3.32a70.54,70.54,0,0,1-8.73-9,59.53,59.53,0,0,1-4-5.59,51.79,51.79,0,0,1-2.81-4.86c-.73-1.42-1.29-2.59-1.66-3.41S779.54,503.68,779.54,503.68Z" transform="translate(-193.13 -11)"/><path class="cls-1" d="M779.52,503.12l-.76-.1.29.8.14.37c.09.23.25.56.43,1,.39.84,1,2,1.7,3.47a55.22,55.22,0,0,0,2.84,4.9,60.41,60.41,0,0,0,4,5.61,71.8,71.8,0,0,0,8.77,9.09c1.24,1.09,2.31,1.93,3.05,2.51l.88.66.33.24.7.5.09-.78a34.19,34.19,0,0,0-.16-7.08A24.37,24.37,0,0,0,797.14,512a20.52,20.52,0,0,0-5.21-4.53,31.88,31.88,0,0,0-5.64-2.65A36,36,0,0,0,779.52,503.12Zm9.42,15.4a64.56,64.56,0,0,1-5.75-8.52c-1.4-2.54-2.34-4.56-2.81-5.63a35.22,35.22,0,0,1,7.2,2.07,26.86,26.86,0,0,1,4.65,2.42,19.08,19.08,0,0,1,4.13,3.73,17.65,17.65,0,0,1,2.73,4.89,25.22,25.22,0,0,1,1.39,5.12,38,38,0,0,1,.46,7.6,63.2,63.2,0,0,1-4.91-4.12c-1.08-1-2.26-2.13-3.47-3.39S790.14,520,788.94,518.52Z" transform="translate(-193.13 -11)"/><path class="cls-1" d="M759.5,469.39s.68.21,1.74.65a44.15,44.15,0,0,1,4.11,1.94,26.36,26.36,0,0,1,4.91,3.27,17.48,17.48,0,0,1,4.18,4.87c2.24,3.85,2.55,8.45,2.48,12.16a38.9,38.9,0,0,1-.45,4.66c-.18,1.16-.34,1.86-.34,1.86s-.38-.33-1-.95-1.52-1.53-2.58-2.7a56.63,56.63,0,0,1-7.2-9.83,59.93,59.93,0,0,1-2.91-6c-.74-1.9-1.33-3.64-1.79-5.11a32.54,32.54,0,0,1-.87-3.54Z" transform="translate(-193.13 -11)"/><path class="cls-1" d="M759.6,468.85l-.73-.22.13.8.06.37c.05.24.11.58.2,1a36,36,0,0,0,.89,3.61c.47,1.49,1.07,3.25,1.81,5.16a59.57,59.57,0,0,0,2.93,6,56.81,56.81,0,0,0,7.24,9.89c1.07,1.19,2,2.12,2.63,2.76.33.32.6.56.78.73l.3.26.64.55.18-.75c0-.11.2-.89.36-2.11a34.3,34.3,0,0,0,.44-4.76c0-3.75-.31-8.35-2.58-12.27a18.22,18.22,0,0,0-4.2-4.94,26.3,26.3,0,0,0-4.93-3.34A37.87,37.87,0,0,0,759.6,468.85Zm6.16,16.22c-.9-1.62-1.7-3.22-2.4-4.74s-1.17-3-1.63-4.31-.84-2.49-1.07-3.49-.39-1.79-.5-2.34a42.93,42.93,0,0,1,6.54,3.15,24.87,24.87,0,0,1,4,3,15.46,15.46,0,0,1,3.33,4.06,18.25,18.25,0,0,1,1.84,5,30,30,0,0,1,.54,5.06,35.69,35.69,0,0,1-.63,7.41c-.82-.8-2.37-2.37-4.24-4.53a45.59,45.59,0,0,1-2.87-3.7A46.25,46.25,0,0,1,765.76,485.07Z" transform="translate(-193.13 -11)"/><path d="M933.25,703.5c-.39-6.6-.83-13.08-2.3-19.25a75.08,75.08,0,0,0-6.58-17.9c-5.86-11.42-14.26-21.53-23.7-30.48s-20.08-16.75-31-24.23-22.15-14.66-33-22.58c-5.42-3.95-10.75-8.09-15.86-12.52s-10-9.13-14.64-14-9.16-9.81-13.57-14.83-8.73-10.12-13-15.29a314.09,314.09,0,0,1-23.68-32.6c-1.74-2.89-3.53-5.75-5.13-8.73-.8-1.49-1.67-2.94-2.42-4.46l-2.28-4.54c-.79-1.5-1.46-3.06-2.15-4.61s-1.4-3.09-2-4.66l-1.84-4.75c-.3-.8-.62-1.58-.9-2.39l-.79-2.43" transform="translate(-193.13 -11)"/><path class="cls-2" d="M757.38,457c3.58,11.08,9.13,21.86,15.55,32.32a294.39,294.39,0,0,0,22.16,30.48q6.12,7.44,12.55,14.77c4.28,4.88,8.56,9.62,12.91,14.13s8.79,8.78,13.36,12.75,9.45,7.76,14.55,11.47c10.2,7.44,21.26,14.54,32.52,22.24,5.62,3.86,11.3,7.87,16.92,12.18a206,206,0,0,1,16.53,14c10.6,10.08,20.48,21.78,27.74,35.87a95.16,95.16,0,0,1,8.29,22.63,90.19,90.19,0,0,1,1.93,11.74c.4,3.76.63,7.35.83,10.76a27.22,27.22,0,0,1-4.53,17.19,26.19,26.19,0,0,1-5.44,5.87,18.82,18.82,0,0,1-7.19,3.6,13.87,13.87,0,0,1-8.06-.45,16.37,16.37,0,0,1-3.85-2,20.47,20.47,0,0,1-3.48-3.14c-4.36-4.85-7-12.12-7.39-18.74-.18-3.2-.38-6.14-.66-8.81a52.12,52.12,0,0,0-1.18-7.19,55.63,55.63,0,0,0-4.86-13.18c-4.47-8.73-11.39-17.25-19.67-25.09a166,166,0,0,0-13.35-11.32c-4.8-3.69-9.89-7.29-15.18-10.91-10.58-7.25-22-14.54-33.49-22.93-5.75-4.19-11.53-8.67-17.19-13.57s-10.92-10-15.91-15.18-9.7-10.38-14.23-15.55-9-10.41-13.42-15.8A334.13,334.13,0,0,1,739,510.4c-1.91-3.15-3.84-6.26-5.61-9.56-.9-1.64-1.83-3.23-2.68-4.92l-2.53-5.05c-.87-1.66-1.63-3.41-2.41-5.16s-1.56-3.46-2.29-5.24l-2.09-5.4c-.34-.9-.71-1.79-1-2.71l-.91-2.78A37.41,37.41,0,0,1,718,463.8a38,38,0,0,1-.29-5.68c0-.91.09-1.81.18-2.68a21.55,21.55,0,0,1,.48-2.59,26.19,26.19,0,0,1,1.58-4.7,17.78,17.78,0,0,1,5.35-7,14.77,14.77,0,0,1,7.46-3,17.64,17.64,0,0,1,8,1,26.25,26.25,0,0,1,7,4,23.74,23.74,0,0,1,3,2.81c.9,1,1.83,2.1,2.66,3.25a23.43,23.43,0,0,1,2.16,3.69A26.74,26.74,0,0,1,757.38,457Z" transform="translate(-193.13 -11)"/><path class="cls-3" d="M933.93,648.08s.76.19,2,.65a26.93,26.93,0,0,1,4.88,2.39,26.24,26.24,0,0,1,10.83,12.42,23.86,23.86,0,0,1,1.74,9c0,.72,0,1.43,0,2.12s-.14,1.39-.23,2a35.54,35.54,0,0,1-.73,3.67,27.56,27.56,0,0,1-2,5.23,21.27,21.27,0,0,1-1.07,1.85l-2.1-6-1.09-3-.58-1.67c-.23-.56-.46-1.14-.69-1.73l-1.41-3.73c-.54-1.27-1.07-2.58-1.59-3.94-2.18-5.35-4.11-10.2-5.61-13.67Z" transform="translate(-193.13 -11)"/><path class="cls-4" d="M933.87,647.44l-.82-.2.36.93,2.42,5.8c1.51,3.49,3.44,8.35,5.61,13.66.51,1.35,1,2.65,1.58,3.91s1,2.53,1.4,3.72c.24.59.47,1.17.69,1.73s.4,1.14.59,1.68c.39,1.08.76,2.09,1.09,3,1.29,3.69,2.11,6,2.12,6.09l.36,1,.47-.71a24.93,24.93,0,0,0,3.23-7.48,32.72,32.72,0,0,0,.72-3.74c.1-.67.17-1.37.23-2.08s0-1.43,0-2.16a24.71,24.71,0,0,0-1.81-9.22,26.91,26.91,0,0,0-11-12.7A26.54,26.54,0,0,0,933.87,647.44Zm8.5,19.82c-3.35-8.54-6.48-15.69-7.52-18.28a29.24,29.24,0,0,1,7.72,3.95,32.15,32.15,0,0,1,4.8,4.45,29.57,29.57,0,0,1,2.1,3,18.59,18.59,0,0,1,1.72,3.39A23.46,23.46,0,0,1,952.8,671a34.19,34.19,0,0,1,0,3.5,27.14,27.14,0,0,1-.43,3.25,26.66,26.66,0,0,1-2.95,8.41C948.54,683.5,945.79,675.74,942.37,667.26Z" transform="translate(-193.13 -11)"/><path class="cls-3" d="M902,613.76s.75-.06,2,0a31.34,31.34,0,0,1,5.14.51A25.5,25.5,0,0,1,922.67,621a20,20,0,0,1,2.68,3.3,27.18,27.18,0,0,1,2,3.55,29.77,29.77,0,0,1,2.12,7,33.13,33.13,0,0,1,.49,5.29,20.41,20.41,0,0,1-.09,2.11l-1.21-1.11c-.79-.69-1.91-1.7-3.25-3s-3-2.7-4.66-4.39c-.86-.83-1.78-1.67-2.7-2.58l-2.82-2.8c-3.8-3.9-7.12-7.48-9.45-10.2-1.17-1.35-2.12-2.43-2.75-3.22Z" transform="translate(-193.13 -11)"/><path class="cls-4" d="M901.81,613.19l-.82.07.58.75,1,1.28c.65.8,1.61,1.9,2.79,3.26,2.35,2.74,5.68,6.33,9.46,10.21l2.82,2.79c.91.91,1.83,1.75,2.69,2.58,1.7,1.69,3.35,3.11,4.68,4.41s2.49,2.3,3.29,3l1.25,1.16.75.66.09-.84a20.52,20.52,0,0,0,.11-2.39,32.86,32.86,0,0,0-.52-5.45,30.49,30.49,0,0,0-2.21-7.07,26.88,26.88,0,0,0-2-3.59,20.76,20.76,0,0,0-2.74-3.36,26.1,26.1,0,0,0-13.65-7A30,30,0,0,0,901.81,613.19Zm13.75,14.86c-6-6.08-10.78-11.72-12.45-13.74a29.94,29.94,0,0,1,8.16,1,27.78,27.78,0,0,1,2.8.86,28.43,28.43,0,0,1,2.85,1.28,21.32,21.32,0,0,1,5.4,3.94,24.69,24.69,0,0,1,6.09,11.3,31.22,31.22,0,0,1,.92,8.42c-1-.89-3-2.67-5.38-4.94S918.6,631.1,915.56,628.05Z" transform="translate(-193.13 -11)"/><path class="cls-3" d="M867.2,588.87a32.15,32.15,0,0,1,6.81-.55,24.33,24.33,0,0,1,13.32,3.91c4.32,3,7,7.59,8.56,11.37a35.84,35.84,0,0,1,1.55,4.84c.29,1.21.39,2,.39,2l-1.39-.68c-.89-.44-2.16-1.09-3.69-1.93a124,124,0,0,1-11.41-6.95,100,100,0,0,1-10.25-8.18C868.62,590.42,867.2,588.87,867.2,588.87Z" transform="translate(-193.13 -11)"/><path class="cls-4" d="M867,588.34l-.77.17.59.65.28.3.79.81c.68.68,1.67,1.65,2.92,2.79a98.93,98.93,0,0,0,10.29,8.21,126.06,126.06,0,0,0,11.44,7c1.54.85,2.83,1.51,3.74,2l1.45.71.85.41-.11-.81a30.8,30.8,0,0,0-2-7.21,26,26,0,0,0-8.77-11.48C878.76,585.71,867.44,588.26,867,588.34Zm14.67,12.11a94.81,94.81,0,0,1-13.36-11.2c2.73-.42,11.78-1.44,18.77,3.4a23.33,23.33,0,0,1,7.46,9.19,33.27,33.27,0,0,1,2.57,7.64A128,128,0,0,1,881.63,600.45Z" transform="translate(-193.13 -11)"/><path class="cls-3" d="M834.83,565.48s.7-.11,1.86-.17a37,37,0,0,1,4.65,0c3.69.23,8.27,1.05,12.09,3.8s6.21,7,7.66,10.54a33.66,33.66,0,0,1,2,6.46s-1.95-.71-4.91-2.12a71.15,71.15,0,0,1-10.86-6.37,60.63,60.63,0,0,1-9.21-8.2c-1.05-1.16-1.87-2.14-2.42-2.83S834.83,565.48,834.83,565.48Z" transform="translate(-193.13 -11)"/><path class="cls-4" d="M834.67,564.94l-.75.11.47.68.23.31.63.84c.57.71,1.41,1.7,2.47,2.88A61.28,61.28,0,0,0,847,578a72.9,72.9,0,0,0,10.91,6.4c1.49.71,2.75,1.25,3.63,1.62l1.41.55.83.31-.14-.78c-.06-.5-2.18-11.87-9.91-17.43a23.51,23.51,0,0,0-12.19-3.92A37.17,37.17,0,0,0,834.67,564.94Zm12.91,12.26a59.31,59.31,0,0,1-11.8-11.28,37.34,37.34,0,0,1,7.4.07,21,21,0,0,1,10,3.5c6.15,4.42,8.56,13.06,9.18,15.76A72.57,72.57,0,0,1,847.58,577.2Z" transform="translate(-193.13 -11)"/><path class="cls-3" d="M806.27,536.78a35.26,35.26,0,0,1,6.62,1.05c3.7.95,8.16,2.71,11.37,6s4.66,7.73,5.41,11.35a36.33,36.33,0,0,1,.75,6.45,42.92,42.92,0,0,1-4.35-2.62,58.36,58.36,0,0,1-9.38-7.91,66,66,0,0,1-7.71-9.81C807.21,538.61,806.27,536.78,806.27,536.78Z" transform="translate(-193.13 -11)"/><path class="cls-4" d="M806.18,536.21l-.79,0,.4.78.19.36.54.95c.47.82,1.15,2,2.05,3.36a67.36,67.36,0,0,0,7.76,9.87,59.26,59.26,0,0,0,9.44,8c1.32.89,2.42,1.57,3.2,2l.92.51.34.18.74.37v-.76a37,37,0,0,0-.81-6.8,23.31,23.31,0,0,0-5.54-11.43C818.13,536.75,806.68,536.23,806.18,536.21Zm10.87,14.6a69.28,69.28,0,0,1-9.87-13.4c2.75.25,11.55,1.43,16.72,6.82a20.82,20.82,0,0,1,4.82,9.28,38.25,38.25,0,0,1,1.12,7.28A56.74,56.74,0,0,1,817.05,550.81Z" transform="translate(-193.13 -11)"/><path class="cls-3" d="M779.54,503.68s.71.09,1.88.33a36.29,36.29,0,0,1,4.55,1.25,30.73,30.73,0,0,1,5.61,2.58,19.64,19.64,0,0,1,5.17,4.44c3,3.71,4.12,8.4,4.54,12.21a34.17,34.17,0,0,1,.14,6.71s-1.69-1.18-4.15-3.32a70.54,70.54,0,0,1-8.73-9,59.53,59.53,0,0,1-4-5.59,51.79,51.79,0,0,1-2.81-4.86c-.73-1.42-1.29-2.59-1.66-3.41S779.54,503.68,779.54,503.68Z" transform="translate(-193.13 -11)"/><path class="cls-4" d="M779.52,503.12l-.76-.1.29.8.14.37c.09.23.25.56.43,1,.39.84,1,2,1.7,3.47a55.22,55.22,0,0,0,2.84,4.9,60.41,60.41,0,0,0,4,5.61,71.8,71.8,0,0,0,8.77,9.09c1.24,1.09,2.31,1.93,3.05,2.51l.88.66.33.24.7.5.09-.78a34.19,34.19,0,0,0-.16-7.08A24.37,24.37,0,0,0,797.14,512a20.52,20.52,0,0,0-5.21-4.53,31.88,31.88,0,0,0-5.64-2.65A36,36,0,0,0,779.52,503.12Zm9.42,15.4a64.56,64.56,0,0,1-5.75-8.52c-1.4-2.54-2.34-4.56-2.81-5.63a35.22,35.22,0,0,1,7.2,2.07,26.86,26.86,0,0,1,4.65,2.42,19.08,19.08,0,0,1,4.13,3.73,17.65,17.65,0,0,1,2.73,4.89,25.22,25.22,0,0,1,1.39,5.12,38,38,0,0,1,.46,7.6,63.2,63.2,0,0,1-4.91-4.12c-1.08-1-2.26-2.13-3.47-3.39S790.14,520,788.94,518.52Z" transform="translate(-193.13 -11)"/><path class="cls-3" d="M759.5,469.39s.68.21,1.74.65a44.15,44.15,0,0,1,4.11,1.94,26.36,26.36,0,0,1,4.91,3.27,17.48,17.48,0,0,1,4.18,4.87c2.24,3.85,2.55,8.45,2.48,12.16a38.9,38.9,0,0,1-.45,4.66c-.18,1.16-.34,1.86-.34,1.86s-.38-.33-1-.95-1.52-1.53-2.58-2.7a56.63,56.63,0,0,1-7.2-9.83,59.93,59.93,0,0,1-2.91-6c-.74-1.9-1.33-3.64-1.79-5.11a32.54,32.54,0,0,1-.87-3.54Z" transform="translate(-193.13 -11)"/><path class="cls-4" d="M759.6,468.85l-.73-.22.13.8.06.37c.05.24.11.58.2,1a36,36,0,0,0,.89,3.61c.47,1.49,1.07,3.25,1.81,5.16a59.57,59.57,0,0,0,2.93,6,56.81,56.81,0,0,0,7.24,9.89c1.07,1.19,2,2.12,2.63,2.76.33.32.6.56.78.73l.3.26.64.55.18-.75c0-.11.2-.89.36-2.11a34.3,34.3,0,0,0,.44-4.76c0-3.75-.31-8.35-2.58-12.27a18.22,18.22,0,0,0-4.2-4.94,26.3,26.3,0,0,0-4.93-3.34A37.87,37.87,0,0,0,759.6,468.85Zm6.16,16.22c-.9-1.62-1.7-3.22-2.4-4.74s-1.17-3-1.63-4.31-.84-2.49-1.07-3.49-.39-1.79-.5-2.34a42.93,42.93,0,0,1,6.54,3.15,24.87,24.87,0,0,1,4,3,15.46,15.46,0,0,1,3.33,4.06,18.25,18.25,0,0,1,1.84,5,30,30,0,0,1,.54,5.06,35.69,35.69,0,0,1-.63,7.41c-.82-.8-2.37-2.37-4.24-4.53a45.59,45.59,0,0,1-2.87-3.7A46.25,46.25,0,0,1,765.76,485.07Z" transform="translate(-193.13 -11)"/><path class="cls-1" d="M636.62,466.59c-3.84,12.54-8.48,25-15,36.67a121.33,121.33,0,0,1-11.1,16.67,130.93,130.93,0,0,1-13.68,14.55c-9.76,9-20.49,16.68-31.25,24.06S544,573.09,533,580.1q-8.25,5.24-16.6,10.34c-5.57,3.4-11.19,6.72-16.75,10-11.08,6.67-22,13.51-31.35,22s-16.73,18.82-23.05,30c-3.17,5.57-6.12,11.31-9.07,17.09s-5.89,11.55-8.54,17.38" transform="translate(-193.13 -11)"/><path class="cls-1" d="M409.43,678.63c2.91-6.39,6-12.37,8.92-18.16s6-11.85,9.52-17.92c1.72-3,3.54-6.07,5.49-9.11s4-6.05,6.26-9a115.48,115.48,0,0,1,15.24-16.75c2.76-2.54,5.62-4.84,8.49-7.1s5.78-4.32,8.69-6.29c5.82-4,11.63-7.53,17.32-10.95s11.16-6.63,16.62-10,10.88-6.72,16.28-10.15q16.18-10.31,32.07-21.18c10.5-7.19,20.45-14.37,29-22.26a110,110,0,0,0,11.62-12.35,100.36,100.36,0,0,0,9.23-13.87c5.51-9.9,9.73-21,13.32-32.84a28.1,28.1,0,0,1,10.23-14.61c4.62-3.31,10.16-4.73,15.5-3.33a18,18,0,0,1,11.83,10.62,27.63,27.63,0,0,1,.69,19.05c-4.07,13.29-9.14,27.09-16.59,40.51a141,141,0,0,1-13,19.46,150.11,150.11,0,0,1-15.74,16.76c-5.49,5.07-11.12,9.64-16.75,13.89s-11.25,8.21-16.76,12c-11,7.5-22,14.79-33.2,21.93q-8.41,5.34-16.93,10.55c-5.67,3.47-11.46,6.88-16.88,10.12-10.82,6.48-20.63,12.75-28.19,19.66-1,.86-1.85,1.74-2.76,2.61s-1.75,1.75-2.55,2.68a75.26,75.26,0,0,0-4.82,5.86c-1.57,2.07-3.09,4.28-4.58,6.61s-3,4.75-4.4,7.29c-2.89,5.07-5.7,10.53-8.63,16.27s-5.76,11.32-8.15,16.58a24.93,24.93,0,0,1-18.23,14.33,19.58,19.58,0,0,1-8-.12,15.28,15.28,0,0,1-7.1-3.73,17.42,17.42,0,0,1-4.56-7.2C406,692.72,406.37,685.28,409.43,678.63Z" transform="translate(-193.13 -11)"/><path class="cls-1" d="M601.7,502.41s-.2-.66-.44-1.75-.5-2.58-.72-4.32a30.1,30.1,0,0,1-.16-5.59,17.15,17.15,0,0,1,.48-2.91,12.68,12.68,0,0,1,1-2.88,17.59,17.59,0,0,1,1.62-2.62,21,21,0,0,1,2.06-2.25,29.47,29.47,0,0,1,4.62-3.54,36.46,36.46,0,0,1,4-2.21c1-.5,1.69-.77,1.69-.77s0,.49-.16,1.34-.32,2.07-.63,3.57-.78,3.21-1.36,5.12a48.79,48.79,0,0,1-2.37,5.93c-.5,1-1,2-1.54,2.91s-1.1,1.75-1.64,2.56a36.63,36.63,0,0,1-3.13,4.06,27.87,27.87,0,0,1-2.38,2.5C602.05,502.11,601.7,502.41,601.7,502.41Z" transform="translate(-193.13 -11)"/><path class="cls-1" d="M601.22,502.6l.21.71.58-.5.27-.24.71-.66a27.57,27.57,0,0,0,2.43-2.55,39.88,39.88,0,0,0,3.17-4.11c.54-.82,1.11-1.67,1.65-2.58s1-1.91,1.54-2.92a48.62,48.62,0,0,0,2.38-6c.58-1.93,1.08-3.65,1.38-5.18s.52-2.76.65-3.63c.07-.43.1-.79.13-1l0-.38.07-.82-.7.28c-.11,0-.84.34-1.92.88a34.46,34.46,0,0,0-4.06,2.28,29.36,29.36,0,0,0-4.62,3.6,21.3,21.3,0,0,0-2.06,2.28,19.36,19.36,0,0,0-1.64,2.66,13.65,13.65,0,0,0-1,2.91,17.28,17.28,0,0,0-.51,2.93,29.72,29.72,0,0,0,.12,5.62c.22,1.76.46,3.26.72,4.41S601.18,502.49,601.22,502.6Zm9.66-13.28a43.73,43.73,0,0,1-5,8c-.84,1-1.6,1.9-2.25,2.62s-1.23,1.21-1.62,1.57c-.15-.62-.37-1.59-.57-2.77a34.34,34.34,0,0,1-.53-4.12,26.57,26.57,0,0,1,.09-4.7,14.45,14.45,0,0,1,4.25-8.74A24.27,24.27,0,0,1,609,478a37.35,37.35,0,0,1,6.29-3.57A51,51,0,0,1,610.88,489.32Z" transform="translate(-193.13 -11)"/><path class="cls-1" d="M576,529.35s0-.71.17-1.85.42-2.73.83-4.48c.89-3.5,2.36-7.64,5.28-10.53s6.9-4.12,10.27-4.86a40,40,0,0,1,4.3-.69l1.79-.16a9.69,9.69,0,0,1-.49,1.16c-.35.73-.84,1.79-1.56,3a41.64,41.64,0,0,1-6.94,9,48,48,0,0,1-9.26,7.06c-1.3.79-2.41,1.36-3.18,1.74Z" transform="translate(-193.13 -11)"/><path class="cls-1" d="M575.43,529.4l0,.76.74-.33.35-.16.92-.45c.8-.4,1.93-1,3.24-1.77a48.41,48.41,0,0,0,9.33-7.12,42.85,42.85,0,0,0,7-9.06c.74-1.28,1.24-2.36,1.6-3.11a8,8,0,0,0,.38-.88l.13-.34.26-.72-.73,0a43,43,0,0,0-6.4.91c-3.4.76-7.34,2-10.31,5s-4.48,7.05-5.4,10.58A38.38,38.38,0,0,0,575.43,529.4Zm13.85-9.78a49.24,49.24,0,0,1-12.7,8.89c.07-.66.19-1.69.42-2.92a33.16,33.16,0,0,1,1-4.18,19.72,19.72,0,0,1,4.65-8.56,18.57,18.57,0,0,1,8.37-4.33,41.87,41.87,0,0,1,6.85-1.16A40.59,40.59,0,0,1,589.28,519.62Z" transform="translate(-193.13 -11)"/><path class="cls-1" d="M543.93,552.08a32.15,32.15,0,0,1,1.91-6.39c1.44-3.54,3.9-7.76,7.79-10.45s8.54-3.39,12.22-3.49a37.42,37.42,0,0,1,4.63.19c1.16.12,1.86.26,1.86.26l-.87,1c-.57.66-1.39,1.61-2.5,2.73a64.21,64.21,0,0,1-9.36,7.89A75.7,75.7,0,0,1,548.77,550C545.84,551.41,543.93,552.08,543.93,552.08Z" transform="translate(-193.13 -11)"/><path class="cls-1" d="M543.36,552.1l-.13.77.81-.29.38-.14,1-.4c.86-.35,2.1-.86,3.57-1.56a75.66,75.66,0,0,0,10.89-6.2,65.43,65.43,0,0,0,9.42-7.93c1.12-1.13,2-2.1,2.55-2.78l.67-.8.24-.3.5-.65-.75-.14a33.13,33.13,0,0,0-6.84-.46,22.84,22.84,0,0,0-12.33,3.6C545.38,540.32,543.42,551.62,543.36,552.1Zm16-8.64a75.61,75.61,0,0,1-14.66,7.8c.57-2.65,3-11.26,9.26-15.61A20.43,20.43,0,0,1,564,532.39a34.84,34.84,0,0,1,7.37.2A61.66,61.66,0,0,1,559.32,543.46Z" transform="translate(-193.13 -11)"/><path class="cls-1" d="M510.25,573.68a32.11,32.11,0,0,1,2.13-6.31c1.57-3.48,4.12-7.59,8.18-10.18s8.87-3.18,12.69-3.15a33,33,0,0,1,6.63.73,73,73,0,0,1-29.63,18.91Z" transform="translate(-193.13 -11)"/><path class="cls-1" d="M509.68,573.67l-.15.77.81-.26.38-.12,1-.36c.88-.32,2.13-.79,3.63-1.43a72.82,72.82,0,0,0,21.07-13.45c1.21-1.09,2.17-2,2.82-2.68l.76-.78.27-.29.58-.64-.75-.18c-.49-.11-11.58-2.75-19.83,2.52S509.79,573.19,509.68,573.67Zm16.26-8A75,75,0,0,1,511,572.89c.7-2.64,3.29-11.1,9.83-15.28s15.33-3,18-2.49A75,75,0,0,1,525.94,565.62Z" transform="translate(-193.13 -11)"/><path class="cls-1" d="M474.13,595.88a30.19,30.19,0,0,1,2.31-6.62c1.74-3.67,4.67-8,9-10.59a23,23,0,0,1,13-2.83,32.48,32.48,0,0,1,6.59,1s-1.42,1.44-3.89,3.51a83,83,0,0,1-10.32,7.32,117.68,117.68,0,0,1-11.58,6C476.17,595.1,474.13,595.88,474.13,595.88Z" transform="translate(-193.13 -11)"/><path class="cls-1" d="M473.52,595.93l-.15.79.86-.33,1.48-.6c.92-.38,2.23-1,3.8-1.67a119.45,119.45,0,0,0,11.62-6,85,85,0,0,0,10.36-7.35c1.25-1,2.24-1.94,2.92-2.57l.78-.75.29-.28.6-.61-.75-.21a32.25,32.25,0,0,0-6.95-1,23.47,23.47,0,0,0-13.18,3A25.22,25.22,0,0,0,476,588.92,30.86,30.86,0,0,0,473.52,595.93Zm17.09-8.69A125.09,125.09,0,0,1,474.92,595a33,33,0,0,1,3-7.4,22.74,22.74,0,0,1,7.81-8.51c7-4.19,15.63-2.52,18.31-2A79,79,0,0,1,490.61,587.24Z" transform="translate(-193.13 -11)"/><path class="cls-1" d="M439.49,628.83a19,19,0,0,1-.17-2.05,29.29,29.29,0,0,1,.3-5.25,26.72,26.72,0,0,1,2-7.06,27,27,0,0,1,2-3.7,25,25,0,0,1,2.82-3.43,24.75,24.75,0,0,1,13.94-6.69,26.78,26.78,0,0,1,5.17-.31,18.48,18.48,0,0,1,2,.14l-1,1.17-2.88,3.1c-2.46,2.6-5.9,6.13-9.81,10s-7.53,7.4-10.14,10c-1.3,1.27-2.36,2.29-3.12,3Z" transform="translate(-193.13 -11)"/><path class="cls-1" d="M438.93,629.1l.12.81.71-.64,1.21-1.13c.76-.71,1.84-1.75,3.14-3l10.14-10c3.88-3.87,7.33-7.41,9.81-10L467,602l1.08-1.22.61-.71-.8-.12a28,28,0,0,0-7.61.18A25.56,25.56,0,0,0,446.13,607a27.41,27.41,0,0,0-2.88,3.5,27,27,0,0,0-2.09,3.75,29.28,29.28,0,0,0-1.35,3.7,32.26,32.26,0,0,0-.75,3.45A26.67,26.67,0,0,0,438.93,629.1Zm14.61-14.68c-6.23,6.2-11.63,11.46-13.58,13.28a28.64,28.64,0,0,1,.65-8.37,22.46,22.46,0,0,1,17.67-17.72,29.19,29.19,0,0,1,8.24-.65C464.77,602.9,459.75,608.28,453.54,614.42Z" transform="translate(-193.13 -11)"/><path class="cls-1" d="M417.85,667a32,32,0,0,1-1.41-6.63,23.3,23.3,0,0,1,2.2-13.5c2.47-4.62,6.77-7.87,10.41-9.8a29.66,29.66,0,0,1,6.64-2.62s-.78,2.11-2.14,5.32-3.25,7.56-5.64,12a99.7,99.7,0,0,1-6.79,10.94C419.21,665.4,417.85,667,417.85,667Z" transform="translate(-193.13 -11)"/><path class="cls-1" d="M417.35,667.3l.26.74.58-.67,1-1.18c.59-.75,1.42-1.82,2.39-3.17a99.76,99.76,0,0,0,6.81-11c2.38-4.47,4.28-8.82,5.65-12.07.71-1.62,1.22-3,1.61-3.92l.59-1.51.32-.89-.79.18a29.86,29.86,0,0,0-7,2.77,25.71,25.71,0,0,0-10.5,10,23.68,23.68,0,0,0-2.32,13.66A33.09,33.09,0,0,0,417.35,667.3Zm10.12-15.73a93,93,0,0,1-9.38,14.32c-.74-2.66-3-11.3,1-18.79a23.09,23.09,0,0,1,8.33-8.46,32.58,32.58,0,0,1,4.35-2.25,29.13,29.13,0,0,1,3.06-1.11A165.92,165.92,0,0,1,427.47,651.57Z" transform="translate(-193.13 -11)"/><path d="M636.62,466.59c-3.84,12.54-8.48,25-15,36.67a121.33,121.33,0,0,1-11.1,16.67,130.93,130.93,0,0,1-13.68,14.55c-9.76,9-20.49,16.68-31.25,24.06S544,573.09,533,580.1q-8.25,5.24-16.6,10.34c-5.57,3.4-11.19,6.72-16.75,10-11.08,6.67-22,13.51-31.35,22s-16.73,18.82-23.05,30c-3.17,5.57-6.12,11.31-9.07,17.09s-5.89,11.55-8.54,17.38" transform="translate(-193.13 -11)"/><path class="cls-2" d="M409.43,678.63c2.91-6.39,6-12.37,8.92-18.16s6-11.85,9.52-17.92c1.72-3,3.54-6.07,5.49-9.11s4-6.05,6.26-9a115.48,115.48,0,0,1,15.24-16.75c2.76-2.54,5.62-4.84,8.49-7.1s5.78-4.32,8.69-6.29c5.82-4,11.63-7.53,17.32-10.95s11.16-6.63,16.62-10,10.88-6.72,16.28-10.15q16.18-10.31,32.07-21.18c10.5-7.19,20.45-14.37,29-22.26a110,110,0,0,0,11.62-12.35,100.36,100.36,0,0,0,9.23-13.87c5.51-9.9,9.73-21,13.32-32.84a28.1,28.1,0,0,1,10.23-14.61c4.62-3.31,10.16-4.73,15.5-3.33a18,18,0,0,1,11.83,10.62,27.63,27.63,0,0,1,.69,19.05c-4.07,13.29-9.14,27.09-16.59,40.51a141,141,0,0,1-13,19.46,150.11,150.11,0,0,1-15.74,16.76c-5.49,5.07-11.12,9.64-16.75,13.89s-11.25,8.21-16.76,12c-11,7.5-22,14.79-33.2,21.93q-8.41,5.34-16.93,10.55c-5.67,3.47-11.46,6.88-16.88,10.12-10.82,6.48-20.63,12.75-28.19,19.66-1,.86-1.85,1.74-2.76,2.61s-1.75,1.75-2.55,2.68a75.26,75.26,0,0,0-4.82,5.86c-1.57,2.07-3.09,4.28-4.58,6.61s-3,4.75-4.4,7.29c-2.89,5.07-5.7,10.53-8.63,16.27s-5.76,11.32-8.15,16.58a24.93,24.93,0,0,1-18.23,14.33,19.58,19.58,0,0,1-8-.12,15.28,15.28,0,0,1-7.1-3.73,17.42,17.42,0,0,1-4.56-7.2C406,692.72,406.37,685.28,409.43,678.63Z" transform="translate(-193.13 -11)"/><path class="cls-3" d="M601.7,502.41s-.2-.66-.44-1.75-.5-2.58-.72-4.32a30.1,30.1,0,0,1-.16-5.59,17.15,17.15,0,0,1,.48-2.91,12.68,12.68,0,0,1,1-2.88,17.59,17.59,0,0,1,1.62-2.62,21,21,0,0,1,2.06-2.25,29.47,29.47,0,0,1,4.62-3.54,36.46,36.46,0,0,1,4-2.21c1-.5,1.69-.77,1.69-.77s0,.49-.16,1.34-.32,2.07-.63,3.57-.78,3.21-1.36,5.12a48.79,48.79,0,0,1-2.37,5.93c-.5,1-1,2-1.54,2.91s-1.1,1.75-1.64,2.56a36.63,36.63,0,0,1-3.13,4.06,27.87,27.87,0,0,1-2.38,2.5C602.05,502.11,601.7,502.41,601.7,502.41Z" transform="translate(-193.13 -11)"/><path class="cls-4" d="M601.22,502.6l.21.71.58-.5.27-.24.71-.66a27.57,27.57,0,0,0,2.43-2.55,39.88,39.88,0,0,0,3.17-4.11c.54-.82,1.11-1.67,1.65-2.58s1-1.91,1.54-2.92a48.62,48.62,0,0,0,2.38-6c.58-1.93,1.08-3.65,1.38-5.18s.52-2.76.65-3.63c.07-.43.1-.79.13-1l0-.38.07-.82-.7.28c-.11,0-.84.34-1.92.88a34.46,34.46,0,0,0-4.06,2.28,29.36,29.36,0,0,0-4.62,3.6,21.3,21.3,0,0,0-2.06,2.28,19.36,19.36,0,0,0-1.64,2.66,13.65,13.65,0,0,0-1,2.91,17.28,17.28,0,0,0-.51,2.93,29.72,29.72,0,0,0,.12,5.62c.22,1.76.46,3.26.72,4.41S601.18,502.49,601.22,502.6Zm9.66-13.28a43.73,43.73,0,0,1-5,8c-.84,1-1.6,1.9-2.25,2.62s-1.23,1.21-1.62,1.57c-.15-.62-.37-1.59-.57-2.77a34.34,34.34,0,0,1-.53-4.12,26.57,26.57,0,0,1,.09-4.7,14.45,14.45,0,0,1,4.25-8.74A24.27,24.27,0,0,1,609,478a37.35,37.35,0,0,1,6.29-3.57A51,51,0,0,1,610.88,489.32Z" transform="translate(-193.13 -11)"/><path class="cls-3" d="M576,529.35s0-.71.17-1.85.42-2.73.83-4.48c.89-3.5,2.36-7.64,5.28-10.53s6.9-4.12,10.27-4.86a40,40,0,0,1,4.3-.69l1.79-.16a9.69,9.69,0,0,1-.49,1.16c-.35.73-.84,1.79-1.56,3a41.64,41.64,0,0,1-6.94,9,48,48,0,0,1-9.26,7.06c-1.3.79-2.41,1.36-3.18,1.74Z" transform="translate(-193.13 -11)"/><path class="cls-4" d="M575.43,529.4l0,.76.74-.33.35-.16.92-.45c.8-.4,1.93-1,3.24-1.77a48.41,48.41,0,0,0,9.33-7.12,42.85,42.85,0,0,0,7-9.06c.74-1.28,1.24-2.36,1.6-3.11a8,8,0,0,0,.38-.88l.13-.34.26-.72-.73,0a43,43,0,0,0-6.4.91c-3.4.76-7.34,2-10.31,5s-4.48,7.05-5.4,10.58A38.38,38.38,0,0,0,575.43,529.4Zm13.85-9.78a49.24,49.24,0,0,1-12.7,8.89c.07-.66.19-1.69.42-2.92a33.16,33.16,0,0,1,1-4.18,19.72,19.72,0,0,1,4.65-8.56,18.57,18.57,0,0,1,8.37-4.33,41.87,41.87,0,0,1,6.85-1.16A40.59,40.59,0,0,1,589.28,519.62Z" transform="translate(-193.13 -11)"/><path class="cls-3" d="M543.93,552.08a32.15,32.15,0,0,1,1.91-6.39c1.44-3.54,3.9-7.76,7.79-10.45s8.54-3.39,12.22-3.49a37.42,37.42,0,0,1,4.63.19c1.16.12,1.86.26,1.86.26l-.87,1c-.57.66-1.39,1.61-2.5,2.73a64.21,64.21,0,0,1-9.36,7.89A75.7,75.7,0,0,1,548.77,550C545.84,551.41,543.93,552.08,543.93,552.08Z" transform="translate(-193.13 -11)"/><path class="cls-4" d="M543.36,552.1l-.13.77.81-.29.38-.14,1-.4c.86-.35,2.1-.86,3.57-1.56a75.66,75.66,0,0,0,10.89-6.2,65.43,65.43,0,0,0,9.42-7.93c1.12-1.13,2-2.1,2.55-2.78l.67-.8.24-.3.5-.65-.75-.14a33.13,33.13,0,0,0-6.84-.46,22.84,22.84,0,0,0-12.33,3.6C545.38,540.32,543.42,551.62,543.36,552.1Zm16-8.64a75.61,75.61,0,0,1-14.66,7.8c.57-2.65,3-11.26,9.26-15.61A20.43,20.43,0,0,1,564,532.39a34.84,34.84,0,0,1,7.37.2A61.66,61.66,0,0,1,559.32,543.46Z" transform="translate(-193.13 -11)"/><path class="cls-3" d="M510.25,573.68a32.11,32.11,0,0,1,2.13-6.31c1.57-3.48,4.12-7.59,8.18-10.18s8.87-3.18,12.69-3.15a33,33,0,0,1,6.63.73,73,73,0,0,1-29.63,18.91Z" transform="translate(-193.13 -11)"/><path class="cls-4" d="M509.68,573.67l-.15.77.81-.26.38-.12,1-.36c.88-.32,2.13-.79,3.63-1.43a72.82,72.82,0,0,0,21.07-13.45c1.21-1.09,2.17-2,2.82-2.68l.76-.78.27-.29.58-.64-.75-.18c-.49-.11-11.58-2.75-19.83,2.52S509.79,573.19,509.68,573.67Zm16.26-8A75,75,0,0,1,511,572.89c.7-2.64,3.29-11.1,9.83-15.28s15.33-3,18-2.49A75,75,0,0,1,525.94,565.62Z" transform="translate(-193.13 -11)"/><path class="cls-3" d="M474.13,595.88a30.19,30.19,0,0,1,2.31-6.62c1.74-3.67,4.67-8,9-10.59a23,23,0,0,1,13-2.83,32.48,32.48,0,0,1,6.59,1s-1.42,1.44-3.89,3.51a83,83,0,0,1-10.32,7.32,117.68,117.68,0,0,1-11.58,6C476.17,595.1,474.13,595.88,474.13,595.88Z" transform="translate(-193.13 -11)"/><path class="cls-4" d="M473.52,595.93l-.15.79.86-.33,1.48-.6c.92-.38,2.23-1,3.8-1.67a119.45,119.45,0,0,0,11.62-6,85,85,0,0,0,10.36-7.35c1.25-1,2.24-1.94,2.92-2.57l.78-.75.29-.28.6-.61-.75-.21a32.25,32.25,0,0,0-6.95-1,23.47,23.47,0,0,0-13.18,3A25.22,25.22,0,0,0,476,588.92,30.86,30.86,0,0,0,473.52,595.93Zm17.09-8.69A125.09,125.09,0,0,1,474.92,595a33,33,0,0,1,3-7.4,22.74,22.74,0,0,1,7.81-8.51c7-4.19,15.63-2.52,18.31-2A79,79,0,0,1,490.61,587.24Z" transform="translate(-193.13 -11)"/><path class="cls-3" d="M439.49,628.83a19,19,0,0,1-.17-2.05,29.29,29.29,0,0,1,.3-5.25,26.72,26.72,0,0,1,2-7.06,27,27,0,0,1,2-3.7,25,25,0,0,1,2.82-3.43,24.75,24.75,0,0,1,13.94-6.69,26.78,26.78,0,0,1,5.17-.31,18.48,18.48,0,0,1,2,.14l-1,1.17-2.88,3.1c-2.46,2.6-5.9,6.13-9.81,10s-7.53,7.4-10.14,10c-1.3,1.27-2.36,2.29-3.12,3Z" transform="translate(-193.13 -11)"/><path class="cls-4" d="M438.93,629.1l.12.81.71-.64,1.21-1.13c.76-.71,1.84-1.75,3.14-3l10.14-10c3.88-3.87,7.33-7.41,9.81-10L467,602l1.08-1.22.61-.71-.8-.12a28,28,0,0,0-7.61.18A25.56,25.56,0,0,0,446.13,607a27.41,27.41,0,0,0-2.88,3.5,27,27,0,0,0-2.09,3.75,29.28,29.28,0,0,0-1.35,3.7,32.26,32.26,0,0,0-.75,3.45A26.67,26.67,0,0,0,438.93,629.1Zm14.61-14.68c-6.23,6.2-11.63,11.46-13.58,13.28a28.64,28.64,0,0,1,.65-8.37,22.46,22.46,0,0,1,17.67-17.72,29.19,29.19,0,0,1,8.24-.65C464.77,602.9,459.75,608.28,453.54,614.42Z" transform="translate(-193.13 -11)"/><path class="cls-3" d="M417.85,667a32,32,0,0,1-1.41-6.63,23.3,23.3,0,0,1,2.2-13.5c2.47-4.62,6.77-7.87,10.41-9.8a29.66,29.66,0,0,1,6.64-2.62s-.78,2.11-2.14,5.32-3.25,7.56-5.64,12a99.7,99.7,0,0,1-6.79,10.94C419.21,665.4,417.85,667,417.85,667Z" transform="translate(-193.13 -11)"/><path class="cls-4" d="M417.35,667.3l.26.74.58-.67,1-1.18c.59-.75,1.42-1.82,2.39-3.17a99.76,99.76,0,0,0,6.81-11c2.38-4.47,4.28-8.82,5.65-12.07.71-1.62,1.22-3,1.61-3.92l.59-1.51.32-.89-.79.18a29.86,29.86,0,0,0-7,2.77,25.71,25.71,0,0,0-10.5,10,23.68,23.68,0,0,0-2.32,13.66A33.09,33.09,0,0,0,417.35,667.3Zm10.12-15.73a93,93,0,0,1-9.38,14.32c-.74-2.66-3-11.3,1-18.79a23.09,23.09,0,0,1,8.33-8.46,32.58,32.58,0,0,1,4.35-2.25,29.13,29.13,0,0,1,3.06-1.11A165.92,165.92,0,0,1,427.47,651.57Z" transform="translate(-193.13 -11)"/><path class="cls-1" d="M698.49,728.69c3-21.9,5.46-43.83,5.46-65.8l0-4.12c0-1.38,0-2.75-.07-4.13l-.18-8.25c0-2.75-.22-5.5-.35-8.25l-.43-8.25c-.4-5.5-.8-11-1.27-16.5s-1-11-1.6-16.49c-2.3-22-5.15-44-7.32-66.12s-3.58-44.43-2.91-66.8" transform="translate(-193.13 -11)"/><path class="cls-1" d="M709.86,464.57c-.63,21.12.66,42.57,2.82,64.27s5,43.65,7.31,66c.62,5.56,1.09,11.22,1.64,16.82s.88,11.31,1.3,17l.45,8.55c.13,2.86.33,5.7.36,8.58l.19,8.63c0,1.44.08,2.87.07,4.31l-.06,4.34c0,11.57-.64,23.2-1.68,34.58s-2.42,22.67-4,33.8c-1.61,11.64-11.87,19.58-22.79,18S677.13,737.18,678.68,726c1.48-10.78,2.79-21.42,3.74-32s1.52-20.86,1.53-31.28l0-3.9c0-1.3,0-2.62-.07-3.93l-.17-7.88c0-2.61-.21-5.28-.34-7.92l-.41-8c-.39-5.33-.77-10.66-1.23-16s-1-10.73-1.57-16.17c-2.27-21.65-5.13-43.69-7.34-66.25s-3.7-45.72-3-69.33a24.21,24.21,0,0,1,1.86-8.61,21.67,21.67,0,0,1,4.79-6.78,18.39,18.39,0,0,1,14.58-5.13,20.56,20.56,0,0,1,13.63,7.22,20.9,20.9,0,0,1,3.8,6.64A20,20,0,0,1,709.86,464.57Z" transform="translate(-193.13 -11)"/><path class="cls-1" d="M720.49,688.51a28.21,28.21,0,0,1,3.89,4.92c1.88,3,3.64,7.17,3.2,11.52s-3,8-5.45,10.54a28,28,0,0,1-4.77,4,68,68,0,0,1-.22-15.61A72.62,72.62,0,0,1,720.49,688.51Z" transform="translate(-193.13 -11)"/><path class="cls-1" d="M720.82,688.11l-.53-.52-.26.73-.42,1.26c-.26.8-.6,1.94-1,3.34a73.11,73.11,0,0,0-2,10.9,70.48,70.48,0,0,0-.22,11c.08,1.43.19,2.6.28,3.42s.16,1.28.17,1.3l.11.75.63-.39c.38-.22,9.55-6.05,10.47-14.94.45-4.44-1.27-8.62-3.16-11.69A27.46,27.46,0,0,0,720.82,688.11Zm-3.18,15.82a73.21,73.21,0,0,1,3.05-14.45c1.75,1.85,7.13,8.39,6.4,15.42s-7.27,12.22-9.34,13.69A68.87,68.87,0,0,1,717.64,703.93Z" transform="translate(-193.13 -11)"/><path class="cls-1" d="M721.37,651.64a28.62,28.62,0,0,1,4.35,4.55,20.65,20.65,0,0,1,2.92,5.06,16.09,16.09,0,0,1,1.24,6.27,15.88,15.88,0,0,1-1.42,6.22,24,24,0,0,1-3.13,5,27.82,27.82,0,0,1-4.49,4.4s-.4-1.79-.75-4.65c-.19-1.44-.37-3.14-.48-5s-.26-4-.22-6.12.18-4.22.39-6.1.49-3.57.69-5C720.91,653.41,721.37,651.64,721.37,651.64Z" transform="translate(-193.13 -11)"/><path class="cls-1" d="M721.66,651.21l-.58-.46-.19.74-.09.35-.21.95c-.17.81-.4,2-.62,3.41s-.47,3.13-.69,5-.36,3.94-.39,6.1.07,4.22.22,6.11.29,3.6.48,5.05.37,2.63.51,3.45c.08.41.14.74.18,1l.08.35.16.75.6-.43a27.91,27.91,0,0,0,4.74-4.66,23.64,23.64,0,0,0,3.11-5,16.28,16.28,0,0,0,1.41-6.32,16.78,16.78,0,0,0-1.22-6.38,20.3,20.3,0,0,0-2.91-5.13A28,28,0,0,0,721.66,651.21Zm-1.77,16.12a62.13,62.13,0,0,1,.82-9.16c.32-2.57.72-4.55.95-5.59a29.21,29.21,0,0,1,4.69,5.38,17.66,17.66,0,0,1,3,9.55,16.85,16.85,0,0,1-3.38,9.43,28,28,0,0,1-4.83,5.24A85,85,0,0,1,719.89,667.33Z" transform="translate(-193.13 -11)"/><path class="cls-1" d="M719.5,616.25a28,28,0,0,1,4.58,4.2c2.31,2.67,4.81,6.39,5,10.78s-1.7,8.42-3.67,11.34a27.69,27.69,0,0,1-4.14,4.75s-.52-1.74-1.11-4.55a65.15,65.15,0,0,1-1.57-10.93,76.21,76.21,0,0,1,.26-11C719.13,618,719.5,616.25,719.5,616.25Z" transform="translate(-193.13 -11)"/><path class="cls-1" d="M719.77,615.8l-.6-.42-.16.75-.06.35c0,.22-.1.54-.17.94-.12.82-.29,2-.43,3.42a75.71,75.71,0,0,0-.25,11,64.58,64.58,0,0,0,1.57,11c.3,1.41.56,2.57.78,3.38l.25.93.1.34.23.74.56-.49a28.56,28.56,0,0,0,4.36-5c2-3,3.86-7.06,3.63-11.52s-2.66-8.24-5-11A28,28,0,0,0,719.77,615.8Zm-.68,16a78.29,78.29,0,0,1,.1-9.07c.19-2.56.48-4.55.65-5.58a28.8,28.8,0,0,1,5,5,16.52,16.52,0,0,1,3.77,9.11c.37,7.06-5.15,13.3-7.05,15.11A75.24,75.24,0,0,1,719.09,631.81Z" transform="translate(-193.13 -11)"/><path class="cls-1" d="M716,581.43a26.57,26.57,0,0,1,4.72,4c2.41,2.53,4.94,6.14,5.39,10.38s-1.33,8.34-3.17,11.32a28.62,28.62,0,0,1-3.81,4.88s-.66-1.67-1.42-4.4a67.58,67.58,0,0,1-2.05-10.73,62.12,62.12,0,0,1-.16-10.87C715.73,583.17,716,581.43,716,581.43Z" transform="translate(-193.13 -11)"/><path class="cls-1" d="M716.28,581l-.62-.39-.13.74,0,.35c0,.21-.08.53-.13.93-.1.81-.22,2-.32,3.39a61.69,61.69,0,0,0,.16,10.92,66.9,66.9,0,0,0,2,10.76c.38,1.38.74,2.5,1,3.28l.31.9.13.33.28.71.52-.51c.32-.29,8-7.95,7.14-16.66S716.67,581.2,716.28,581Zm-.1,15.83a63.9,63.9,0,0,1,.22-14.5c2.08,1.46,8.49,6.69,9.23,13.53s-4.59,13.34-6.3,15.2A65,65,0,0,1,716.18,596.81Z" transform="translate(-193.13 -11)"/><path class="cls-1" d="M712,546.09a28.57,28.57,0,0,1,4.71,3.91c2.41,2.46,4.95,6,5.44,10.13,1,8.29-6.71,16.08-6.71,16.08a60.72,60.72,0,0,1-3.72-14.88,57.74,57.74,0,0,1-.22-10.74C711.67,547.82,712,546.09,712,546.09Z" transform="translate(-193.13 -11)"/><path class="cls-1" d="M712.24,545.64l-.62-.39-.13.74-.06.34-.13.93c-.1.79-.23,1.94-.32,3.34a58.23,58.23,0,0,0,.22,10.79,62.93,62.93,0,0,0,2.23,10.6c.41,1.35.79,2.45,1.07,3.22l.34.88.13.32.29.7.51-.52c.32-.32,7.84-8.06,6.85-16.52-.49-4.24-3-7.78-5.41-10.29A29.81,29.81,0,0,0,712.24,545.64Zm0,15.64a59.38,59.38,0,0,1,.16-14.32c2.07,1.48,8.49,6.5,9.28,13.23s-4.36,13.16-6,15.07A61.74,61.74,0,0,1,712.19,561.28Z" transform="translate(-193.13 -11)"/><path class="cls-1" d="M708.56,510.13s.56.37,1.4,1.06a33,33,0,0,1,3.17,2.94c2.35,2.51,4.78,6,5.13,10.06s-1.33,8-3.18,10.89a29.34,29.34,0,0,1-3.78,4.81s-.67-1.62-1.44-4.27a55.7,55.7,0,0,1-2.05-10.46,58.05,58.05,0,0,1,.09-10.61c.13-1.37.28-2.48.43-3.24S708.56,510.13,708.56,510.13Z" transform="translate(-193.13 -11)"/><path class="cls-1" d="M708.84,509.7l-.6-.41-.16.72-.07.33-.18.91c-.15.78-.3,1.91-.43,3.29a59.71,59.71,0,0,0-.09,10.67,57.08,57.08,0,0,0,2.06,10.51c.39,1.34.75,2.42,1,3.18l.32.87.13.32.28.68.52-.51c.33-.32,7.92-7.84,7.12-16.12S709.17,510,708.84,509.7Zm-.53,15.41a56,56,0,0,1,.58-14.11c2,1.52,8.32,6.7,8.87,13.23s-4.57,12.86-6.28,14.73A57.78,57.78,0,0,1,708.31,525.11Z" transform="translate(-193.13 -11)"/><path class="cls-1" d="M707.2,475.58a29.4,29.4,0,0,1,4.28,4.24,23.07,23.07,0,0,1,2.95,4.54A13.62,13.62,0,0,1,716,490c.17,4-1.89,7.69-3.79,10.49a29.07,29.07,0,0,1-4,4.57,43.89,43.89,0,0,1-1.28-4.27,49.35,49.35,0,0,1-1.46-10.42,54.15,54.15,0,0,1,.09-5.76c.15-1.77.41-3.36.65-4.69A43.67,43.67,0,0,1,707.2,475.58Z" transform="translate(-193.13 -11)"/><path class="cls-1" d="M707.5,475.18l-.57-.44-.2.69-.1.32c0,.21-.13.51-.22.89-.19.76-.44,1.85-.68,3.2s-.5,3-.65,4.73a54.62,54.62,0,0,0-.09,5.78,49.45,49.45,0,0,0,1.47,10.47c.34,1.34.66,2.43.9,3.19.13.37.22.67.29.87l.11.32.26.69.54-.48c.36-.32,8.14-7.41,7.92-15.47a14.07,14.07,0,0,0-1.53-5.68,22.65,22.65,0,0,0-2.94-4.6A29.13,29.13,0,0,0,707.5,475.18ZM706,490.32a48.29,48.29,0,0,1,1.5-13.86c1.92,1.66,7.67,7.07,8,13.52.13,3.22-1.25,6.27-2.8,8.79a30.29,30.29,0,0,1-4.23,5.34A48.5,48.5,0,0,1,706,490.32Z" transform="translate(-193.13 -11)"/><path d="M698.49,728.69c3-21.9,5.46-43.83,5.46-65.8l0-4.12c0-1.38,0-2.75-.07-4.13l-.18-8.25c0-2.75-.22-5.5-.35-8.25l-.43-8.25c-.4-5.5-.8-11-1.27-16.5s-1-11-1.6-16.49c-2.3-22-5.15-44-7.32-66.12s-3.58-44.43-2.91-66.8" transform="translate(-193.13 -11)"/><path class="cls-2" d="M709.86,464.57c-.63,21.12.66,42.57,2.82,64.27s5,43.65,7.31,66c.62,5.56,1.09,11.22,1.64,16.82s.88,11.31,1.3,17l.45,8.55c.13,2.86.33,5.7.36,8.58l.19,8.63c0,1.44.08,2.87.07,4.31l-.06,4.34c0,11.57-.64,23.2-1.68,34.58s-2.42,22.67-4,33.8c-1.61,11.64-11.87,19.58-22.79,18S677.13,737.18,678.68,726c1.48-10.78,2.79-21.42,3.74-32s1.52-20.86,1.53-31.28l0-3.9c0-1.3,0-2.62-.07-3.93l-.17-7.88c0-2.61-.21-5.28-.34-7.92l-.41-8c-.39-5.33-.77-10.66-1.23-16s-1-10.73-1.57-16.17c-2.27-21.65-5.13-43.69-7.34-66.25s-3.7-45.72-3-69.33a24.21,24.21,0,0,1,1.86-8.61,21.67,21.67,0,0,1,4.79-6.78,18.39,18.39,0,0,1,14.58-5.13,20.56,20.56,0,0,1,13.63,7.22,20.9,20.9,0,0,1,3.8,6.64A20,20,0,0,1,709.86,464.57Z" transform="translate(-193.13 -11)"/><path class="cls-3" d="M720.49,688.51a28.21,28.21,0,0,1,3.89,4.92c1.88,3,3.64,7.17,3.2,11.52s-3,8-5.45,10.54a28,28,0,0,1-4.77,4,68,68,0,0,1-.22-15.61A72.62,72.62,0,0,1,720.49,688.51Z" transform="translate(-193.13 -11)"/><path class="cls-4" d="M720.82,688.11l-.53-.52-.26.73-.42,1.26c-.26.8-.6,1.94-1,3.34a73.11,73.11,0,0,0-2,10.9,70.48,70.48,0,0,0-.22,11c.08,1.43.19,2.6.28,3.42s.16,1.28.17,1.3l.11.75.63-.39c.38-.22,9.55-6.05,10.47-14.94.45-4.44-1.27-8.62-3.16-11.69A27.46,27.46,0,0,0,720.82,688.11Zm-3.18,15.82a73.21,73.21,0,0,1,3.05-14.45c1.75,1.85,7.13,8.39,6.4,15.42s-7.27,12.22-9.34,13.69A68.87,68.87,0,0,1,717.64,703.93Z" transform="translate(-193.13 -11)"/><path class="cls-3" d="M721.37,651.64a28.62,28.62,0,0,1,4.35,4.55,20.65,20.65,0,0,1,2.92,5.06,16.09,16.09,0,0,1,1.24,6.27,15.88,15.88,0,0,1-1.42,6.22,24,24,0,0,1-3.13,5,27.82,27.82,0,0,1-4.49,4.4s-.4-1.79-.75-4.65c-.19-1.44-.37-3.14-.48-5s-.26-4-.22-6.12.18-4.22.39-6.1.49-3.57.69-5C720.91,653.41,721.37,651.64,721.37,651.64Z" transform="translate(-193.13 -11)"/><path class="cls-4" d="M721.66,651.21l-.58-.46-.19.74-.09.35-.21.95c-.17.81-.4,2-.62,3.41s-.47,3.13-.69,5-.36,3.94-.39,6.1.07,4.22.22,6.11.29,3.6.48,5.05.37,2.63.51,3.45c.08.41.14.74.18,1l.08.35.16.75.6-.43a27.91,27.91,0,0,0,4.74-4.66,23.64,23.64,0,0,0,3.11-5,16.28,16.28,0,0,0,1.41-6.32,16.78,16.78,0,0,0-1.22-6.38,20.3,20.3,0,0,0-2.91-5.13A28,28,0,0,0,721.66,651.21Zm-1.77,16.12a62.13,62.13,0,0,1,.82-9.16c.32-2.57.72-4.55.95-5.59a29.21,29.21,0,0,1,4.69,5.38,17.66,17.66,0,0,1,3,9.55,16.85,16.85,0,0,1-3.38,9.43,28,28,0,0,1-4.83,5.24A85,85,0,0,1,719.89,667.33Z" transform="translate(-193.13 -11)"/><path class="cls-3" d="M719.5,616.25a28,28,0,0,1,4.58,4.2c2.31,2.67,4.81,6.39,5,10.78s-1.7,8.42-3.67,11.34a27.69,27.69,0,0,1-4.14,4.75s-.52-1.74-1.11-4.55a65.15,65.15,0,0,1-1.57-10.93,76.21,76.21,0,0,1,.26-11C719.13,618,719.5,616.25,719.5,616.25Z" transform="translate(-193.13 -11)"/><path class="cls-4" d="M719.77,615.8l-.6-.42-.16.75-.06.35c0,.22-.1.54-.17.94-.12.82-.29,2-.43,3.42a75.71,75.71,0,0,0-.25,11,64.58,64.58,0,0,0,1.57,11c.3,1.41.56,2.57.78,3.38l.25.93.1.34.23.74.56-.49a28.56,28.56,0,0,0,4.36-5c2-3,3.86-7.06,3.63-11.52s-2.66-8.24-5-11A28,28,0,0,0,719.77,615.8Zm-.68,16a78.29,78.29,0,0,1,.1-9.07c.19-2.56.48-4.55.65-5.58a28.8,28.8,0,0,1,5,5,16.52,16.52,0,0,1,3.77,9.11c.37,7.06-5.15,13.3-7.05,15.11A75.24,75.24,0,0,1,719.09,631.81Z" transform="translate(-193.13 -11)"/><path class="cls-3" d="M716,581.43a26.57,26.57,0,0,1,4.72,4c2.41,2.53,4.94,6.14,5.39,10.38s-1.33,8.34-3.17,11.32a28.62,28.62,0,0,1-3.81,4.88s-.66-1.67-1.42-4.4a67.58,67.58,0,0,1-2.05-10.73,62.12,62.12,0,0,1-.16-10.87C715.73,583.17,716,581.43,716,581.43Z" transform="translate(-193.13 -11)"/><path class="cls-4" d="M716.28,581l-.62-.39-.13.74,0,.35c0,.21-.08.53-.13.93-.1.81-.22,2-.32,3.39a61.69,61.69,0,0,0,.16,10.92,66.9,66.9,0,0,0,2,10.76c.38,1.38.74,2.5,1,3.28l.31.9.13.33.28.71.52-.51c.32-.29,8-7.95,7.14-16.66S716.67,581.2,716.28,581Zm-.1,15.83a63.9,63.9,0,0,1,.22-14.5c2.08,1.46,8.49,6.69,9.23,13.53s-4.59,13.34-6.3,15.2A65,65,0,0,1,716.18,596.81Z" transform="translate(-193.13 -11)"/><path class="cls-3" d="M712,546.09a28.57,28.57,0,0,1,4.71,3.91c2.41,2.46,4.95,6,5.44,10.13,1,8.29-6.71,16.08-6.71,16.08a60.72,60.72,0,0,1-3.72-14.88,57.74,57.74,0,0,1-.22-10.74C711.67,547.82,712,546.09,712,546.09Z" transform="translate(-193.13 -11)"/><path class="cls-4" d="M712.24,545.64l-.62-.39-.13.74-.06.34-.13.93c-.1.79-.23,1.94-.32,3.34a58.23,58.23,0,0,0,.22,10.79,62.93,62.93,0,0,0,2.23,10.6c.41,1.35.79,2.45,1.07,3.22l.34.88.13.32.29.7.51-.52c.32-.32,7.84-8.06,6.85-16.52-.49-4.24-3-7.78-5.41-10.29A29.81,29.81,0,0,0,712.24,545.64Zm0,15.64a59.38,59.38,0,0,1,.16-14.32c2.07,1.48,8.49,6.5,9.28,13.23s-4.36,13.16-6,15.07A61.74,61.74,0,0,1,712.19,561.28Z" transform="translate(-193.13 -11)"/><path class="cls-3" d="M708.56,510.13s.56.37,1.4,1.06a33,33,0,0,1,3.17,2.94c2.35,2.51,4.78,6,5.13,10.06s-1.33,8-3.18,10.89a29.34,29.34,0,0,1-3.78,4.81s-.67-1.62-1.44-4.27a55.7,55.7,0,0,1-2.05-10.46,58.05,58.05,0,0,1,.09-10.61c.13-1.37.28-2.48.43-3.24S708.56,510.13,708.56,510.13Z" transform="translate(-193.13 -11)"/><path class="cls-4" d="M708.84,509.7l-.6-.41-.16.72-.07.33-.18.91c-.15.78-.3,1.91-.43,3.29a59.71,59.71,0,0,0-.09,10.67,57.08,57.08,0,0,0,2.06,10.51c.39,1.34.75,2.42,1,3.18l.32.87.13.32.28.68.52-.51c.33-.32,7.92-7.84,7.12-16.12S709.17,510,708.84,509.7Zm-.53,15.41a56,56,0,0,1,.58-14.11c2,1.52,8.32,6.7,8.87,13.23s-4.57,12.86-6.28,14.73A57.78,57.78,0,0,1,708.31,525.11Z" transform="translate(-193.13 -11)"/><path class="cls-3" d="M707.2,475.58a29.4,29.4,0,0,1,4.28,4.24,23.07,23.07,0,0,1,2.95,4.54A13.62,13.62,0,0,1,716,490c.17,4-1.89,7.69-3.79,10.49a29.07,29.07,0,0,1-4,4.57,43.89,43.89,0,0,1-1.28-4.27,49.35,49.35,0,0,1-1.46-10.42,54.15,54.15,0,0,1,.09-5.76c.15-1.77.41-3.36.65-4.69A43.67,43.67,0,0,1,707.2,475.58Z" transform="translate(-193.13 -11)"/><path class="cls-4" d="M707.5,475.18l-.57-.44-.2.69-.1.32c0,.21-.13.51-.22.89-.19.76-.44,1.85-.68,3.2s-.5,3-.65,4.73a54.62,54.62,0,0,0-.09,5.78,49.45,49.45,0,0,0,1.47,10.47c.34,1.34.66,2.43.9,3.19.13.37.22.67.29.87l.11.32.26.69.54-.48c.36-.32,8.14-7.41,7.92-15.47a14.07,14.07,0,0,0-1.53-5.68,22.65,22.65,0,0,0-2.94-4.6A29.13,29.13,0,0,0,707.5,475.18ZM706,490.32a48.29,48.29,0,0,1,1.5-13.86c1.92,1.66,7.67,7.07,8,13.52.13,3.22-1.25,6.27-2.8,8.79a30.29,30.29,0,0,1-4.23,5.34A48.5,48.5,0,0,1,706,490.32Z" transform="translate(-193.13 -11)"/><g class="cls-5"><path class="cls-6" d="M824.86,421.76c-4.41-7.51-14.69-9.74-23.12-5.68a255.28,255.28,0,0,1-222.37,0c-8.43-4.06-18.71-1.83-23.12,5.68a14.26,14.26,0,0,0-.3,13.11,19.66,19.66,0,0,0-2.42,3.46c-6.47,11.35.82,27.65,17,34.4s32.56.46,36.14-12.1c-4.06,12.42,6.06,26.84,23,30.21s31.66-6,32.7-19.06c-1.54,13,11.09,25.11,28.25,25.09s29.8-12.12,28.26-25.09c1,13,15.79,22.45,32.7,19.06s27-17.79,23-30.21c3.58,12.56,20,18.88,36.14,12.1s23.43-23.05,17-34.4a19.66,19.66,0,0,0-2.42-3.46A14.26,14.26,0,0,0,824.86,421.76Z" transform="translate(-193.13 -11)"/></g><path class="cls-7" d="M692,449.6c-38.59,0-75.49-1.51-102.79-19.75C559,409.69,545,372.7,545,313.43c0-60.86,15.29-123.28,42-171.26C615.45,90.86,651.3,11,690.55,11s77.74,79.87,105.86,131.21c26.19,47.81,41.2,110.21,41.2,171.22,0,59.31-13.82,96.3-43.49,116.4C767.17,448.08,730.45,449.6,692,449.6Z" transform="translate(-193.13 -11)"/><path class="cls-6" d="M830.26,313.43c0,122.7-61.48,129-138.23,129s-139.71-6.3-139.71-129S613.8,59.73,690.55,59.73,830.26,190.73,830.26,313.43Z" transform="translate(-193.13 -11)"/><g class="cls-8"><path class="cls-7" d="M692,391.76c-20.52,0-54.86,0-69.28-9.62-11.9-7.95-18.46-32.35-18.46-68.71,0-52,13-108.09,34.73-150,19-36.65,39.59-53,51.53-53,12.11,0,33,16.49,52.41,53.32,22.12,42,35.33,98,35.33,149.71,0,49.33-11.29,64.35-18,68.91C746.35,391.76,712.34,391.76,692,391.76Z" transform="translate(-193.13 -11)"/><path d="M690.55,110.9c12,0,32.66,16.4,52,53,22.08,41.93,35.27,97.81,35.27,149.48,0,49.1-11.15,64-17.8,68.49-13.79,9.34-47.7,9.34-68,9.34-20.46,0-54.71,0-69-9.54-11.76-7.85-18.24-32.1-18.24-68.29,0-51.94,13-107.92,34.68-149.75,18.93-36.46,39.3-52.78,51.08-52.78m0-1c-12.09,0-32.85,16.49-52,53.32-21.78,42-34.79,98.12-34.79,150.21,0,36.53,6.64,61.08,18.69,69.12,14.54,9.71,49,9.71,69.55,9.71,20.37,0,54.47,0,68.52-9.51,6.81-4.62,18.24-19.76,18.24-69.32,0-51.83-13.23-107.88-35.39-150-19.5-37-40.59-53.58-52.85-53.58Z" transform="translate(-193.13 -11)"/></g><rect class="cls-9" x="387.63" y="366" width="219.59" height="85" rx="11.5" ry="11.5"/><path d="M788.85,377.5a11,11,0,0,1,11,11v62a11,11,0,0,1-11,11H592.26a11,11,0,0,1-11-11v-62a11,11,0,0,1,11-11H788.85m0-1H592.26a12,12,0,0,0-12,12v62a12,12,0,0,0,12,12H788.85a12,12,0,0,0,12-12v-62a12,12,0,0,0-12-12Z" transform="translate(-193.13 -11)"/><g class="cls-10"><rect class="cls-11" x="399.47" y="379.22" width="198.86" height="61.43" rx="2" ry="2"/></g><path class="cls-6" d="M660.51,428.1c0,12.89-8.61-8.6-20-8.6s-21.11,21.49-21.11,8.6,9.19-23.35,20.53-23.35S660.51,415.2,660.51,428.1Z" transform="translate(-193.13 -11)"/><path class="cls-6" d="M763.45,428.1c0,12.89-8.61-8.6-20-8.6s-21.12,21.49-21.12,8.6,9.19-23.35,20.54-23.35S763.45,415.2,763.45,428.1Z" transform="translate(-193.13 -11)"/></svg>